{
	"patcher" : 	{
		"fileversion" : 1,
		"rect" : [ 325.0, 257.0, 502.0, 276.0 ],
		"bgcolor" : [ 1.0, 1.0, 1.0, 1.0 ],
		"bglocked" : 0,
		"defrect" : [ 325.0, 257.0, 502.0, 276.0 ],
		"openrect" : [ 0.0, 0.0, 0.0, 0.0 ],
		"openinpresentation" : 0,
		"default_fontsize" : 10.0,
		"default_fontface" : 0,
		"default_fontname" : "Arial",
		"gridonopen" : 0,
		"gridsize" : [ 15.0, 15.0 ],
		"gridsnaponopen" : 0,
		"toolbarvisible" : 1,
		"boxanimatetime" : 200,
		"imprint" : 1,
		"enablehscroll" : 1,
		"enablevscroll" : 1,
		"devicewidth" : 0.0,
		"boxes" : [ 			{
				"box" : 				{
					"maxclass" : "message",
					"text" : "set 15",
					"numinlets" : 2,
					"bgcolor" : [ 0.867, 0.867, 0.867, 1.0 ],
					"gradient" : 0,
					"presentation_rect" : [ 0.0, 0.0, 0.0, 0.0 ],
					"fontname" : "Arial",
					"numoutlets" : 1,
					"patching_rect" : [ 215.0, 40.0, 42.0, 18.0 ],
					"outlettype" : [ "" ],
					"fontface" : 0,
					"presentation" : 0,
					"id" : "obj-1",
					"fontsize" : 11.595187,
					"background" : 0,
					"textcolor" : [ 0.0, 0.0, 0.0, 1.0 ],
					"bgcolor2" : [ 0.867, 0.867, 0.867, 1.0 ],
					"ignoreclick" : 0,
					"hidden" : 0
				}

			}
, 			{
				"box" : 				{
					"maxclass" : "newobj",
					"text" : "print float",
					"numinlets" : 1,
					"bgcolor" : [ 1.0, 1.0, 1.0, 1.0 ],
					"presentation_rect" : [ 0.0, 0.0, 0.0, 0.0 ],
					"fontname" : "Arial",
					"numoutlets" : 0,
					"patching_rect" : [ 106.0, 162.0, 58.0, 20.0 ],
					"fontface" : 0,
					"presentation" : 0,
					"id" : "obj-10",
					"fontsize" : 11.595187,
					"background" : 0,
					"color" : [ 0.73, 0.82, 0.63, 1.0 ],
					"textcolor" : [ 0.0, 0.0, 0.0, 1.0 ],
					"ignoreclick" : 0,
					"hidden" : 0
				}

			}
, 			{
				"box" : 				{
					"maxclass" : "button",
					"numinlets" : 1,
					"bgcolor" : [ 0.91328, 0.91328, 0.91328, 0.75 ],
					"presentation_rect" : [ 0.0, 0.0, 0.0, 0.0 ],
					"fgcolor" : [ 1.0, 1.0, 1.0, 1.0 ],
					"outlinecolor" : [ 0.71328, 0.71328, 0.71328, 1.0 ],
					"numoutlets" : 1,
					"patching_rect" : [ 106.0, 98.0, 20.0, 20.0 ],
					"blinkcolor" : [ 1.0, 0.890196, 0.090196, 1.0 ],
					"outlettype" : [ "bang" ],
					"presentation" : 0,
					"id" : "obj-11",
					"background" : 0,
					"ignoreclick" : 0,
					"hidden" : 0
				}

			}
, 			{
				"box" : 				{
					"maxclass" : "message",
					"text" : "6 10",
					"numinlets" : 2,
					"bgcolor" : [ 0.867, 0.867, 0.867, 1.0 ],
					"gradient" : 0,
					"presentation_rect" : [ 0.0, 0.0, 0.0, 0.0 ],
					"fontname" : "Arial",
					"numoutlets" : 1,
					"patching_rect" : [ 305.0, 98.0, 33.0, 18.0 ],
					"outlettype" : [ "" ],
					"fontface" : 0,
					"presentation" : 0,
					"id" : "obj-12",
					"fontsize" : 11.595187,
					"background" : 0,
					"textcolor" : [ 0.0, 0.0, 0.0, 1.0 ],
					"bgcolor2" : [ 0.867, 0.867, 0.867, 1.0 ],
					"ignoreclick" : 0,
					"hidden" : 0
				}

			}
, 			{
				"box" : 				{
					"maxclass" : "message",
					"text" : "hey!",
					"numinlets" : 2,
					"bgcolor" : [ 0.867, 0.867, 0.867, 1.0 ],
					"gradient" : 0,
					"presentation_rect" : [ 0.0, 0.0, 0.0, 0.0 ],
					"fontname" : "Arial",
					"numoutlets" : 1,
					"patching_rect" : [ 269.0, 98.0, 32.5, 18.0 ],
					"outlettype" : [ "" ],
					"fontface" : 0,
					"presentation" : 0,
					"id" : "obj-13",
					"fontsize" : 11.595187,
					"background" : 0,
					"textcolor" : [ 0.0, 0.0, 0.0, 1.0 ],
					"bgcolor2" : [ 0.867, 0.867, 0.867, 1.0 ],
					"ignoreclick" : 0,
					"hidden" : 0
				}

			}
, 			{
				"box" : 				{
					"maxclass" : "message",
					"text" : "3.5",
					"numinlets" : 2,
					"bgcolor" : [ 0.867, 0.867, 0.867, 1.0 ],
					"gradient" : 0,
					"presentation_rect" : [ 0.0, 0.0, 0.0, 0.0 ],
					"fontname" : "Arial",
					"numoutlets" : 1,
					"patching_rect" : [ 234.0, 98.0, 32.5, 18.0 ],
					"outlettype" : [ "" ],
					"fontface" : 0,
					"presentation" : 0,
					"id" : "obj-14",
					"fontsize" : 11.595187,
					"background" : 0,
					"textcolor" : [ 0.0, 0.0, 0.0, 1.0 ],
					"bgcolor2" : [ 0.867, 0.867, 0.867, 1.0 ],
					"ignoreclick" : 0,
					"hidden" : 0
				}

			}
, 			{
				"box" : 				{
					"maxclass" : "message",
					"text" : "-3",
					"numinlets" : 2,
					"bgcolor" : [ 0.867, 0.867, 0.867, 1.0 ],
					"gradient" : 0,
					"presentation_rect" : [ 0.0, 0.0, 0.0, 0.0 ],
					"fontname" : "Arial",
					"numoutlets" : 1,
					"patching_rect" : [ 198.0, 98.0, 32.5, 18.0 ],
					"outlettype" : [ "" ],
					"fontface" : 0,
					"presentation" : 0,
					"id" : "obj-15",
					"fontsize" : 11.595187,
					"background" : 0,
					"textcolor" : [ 0.0, 0.0, 0.0, 1.0 ],
					"bgcolor2" : [ 0.867, 0.867, 0.867, 1.0 ],
					"ignoreclick" : 0,
					"hidden" : 0
				}

			}
, 			{
				"box" : 				{
					"maxclass" : "message",
					"text" : "64",
					"numinlets" : 2,
					"bgcolor" : [ 0.867, 0.867, 0.867, 1.0 ],
					"gradient" : 0,
					"presentation_rect" : [ 0.0, 0.0, 0.0, 0.0 ],
					"fontname" : "Arial",
					"numoutlets" : 1,
					"patching_rect" : [ 162.0, 98.0, 32.5, 18.0 ],
					"outlettype" : [ "" ],
					"fontface" : 0,
					"presentation" : 0,
					"id" : "obj-16",
					"fontsize" : 11.595187,
					"background" : 0,
					"textcolor" : [ 0.0, 0.0, 0.0, 1.0 ],
					"bgcolor2" : [ 0.867, 0.867, 0.867, 1.0 ],
					"ignoreclick" : 0,
					"hidden" : 0
				}

			}
, 			{
				"box" : 				{
					"maxclass" : "message",
					"text" : "25",
					"numinlets" : 2,
					"bgcolor" : [ 0.867, 0.867, 0.867, 1.0 ],
					"gradient" : 0,
					"presentation_rect" : [ 0.0, 0.0, 0.0, 0.0 ],
					"fontname" : "Arial",
					"numoutlets" : 1,
					"patching_rect" : [ 126.0, 98.0, 32.5, 18.0 ],
					"outlettype" : [ "" ],
					"fontface" : 0,
					"presentation" : 0,
					"id" : "obj-17",
					"fontsize" : 11.595187,
					"background" : 0,
					"textcolor" : [ 0.0, 0.0, 0.0, 1.0 ],
					"bgcolor2" : [ 0.867, 0.867, 0.867, 1.0 ],
					"ignoreclick" : 0,
					"hidden" : 0
				}

			}
, 			{
				"box" : 				{
					"maxclass" : "button",
					"numinlets" : 1,
					"bgcolor" : [ 0.91328, 0.91328, 0.91328, 0.75 ],
					"presentation_rect" : [ 0.0, 0.0, 0.0, 0.0 ],
					"fgcolor" : [ 1.0, 1.0, 1.0, 1.0 ],
					"outlinecolor" : [ 0.71328, 0.71328, 0.71328, 1.0 ],
					"numoutlets" : 1,
					"patching_rect" : [ 18.0, 40.0, 20.0, 20.0 ],
					"blinkcolor" : [ 1.0, 0.890196, 0.090196, 1.0 ],
					"outlettype" : [ "bang" ],
					"presentation" : 0,
					"id" : "obj-18",
					"background" : 0,
					"ignoreclick" : 0,
					"hidden" : 0
				}

			}
, 			{
				"box" : 				{
					"maxclass" : "message",
					"text" : "hey!",
					"numinlets" : 2,
					"bgcolor" : [ 0.867, 0.867, 0.867, 1.0 ],
					"gradient" : 0,
					"presentation_rect" : [ 0.0, 0.0, 0.0, 0.0 ],
					"fontname" : "Arial",
					"numoutlets" : 1,
					"patching_rect" : [ 177.0, 40.0, 32.5, 18.0 ],
					"outlettype" : [ "" ],
					"fontface" : 0,
					"presentation" : 0,
					"id" : "obj-20",
					"fontsize" : 11.595187,
					"background" : 0,
					"textcolor" : [ 0.0, 0.0, 0.0, 1.0 ],
					"bgcolor2" : [ 0.867, 0.867, 0.867, 1.0 ],
					"ignoreclick" : 0,
					"hidden" : 0
				}

			}
, 			{
				"box" : 				{
					"maxclass" : "message",
					"text" : "3.5",
					"numinlets" : 2,
					"bgcolor" : [ 0.867, 0.867, 0.867, 1.0 ],
					"gradient" : 0,
					"presentation_rect" : [ 0.0, 0.0, 0.0, 0.0 ],
					"fontname" : "Arial",
					"numoutlets" : 1,
					"patching_rect" : [ 142.0, 40.0, 32.5, 18.0 ],
					"outlettype" : [ "" ],
					"fontface" : 0,
					"presentation" : 0,
					"id" : "obj-21",
					"fontsize" : 11.595187,
					"background" : 0,
					"textcolor" : [ 0.0, 0.0, 0.0, 1.0 ],
					"bgcolor2" : [ 0.867, 0.867, 0.867, 1.0 ],
					"ignoreclick" : 0,
					"hidden" : 0
				}

			}
, 			{
				"box" : 				{
					"maxclass" : "message",
					"text" : "-3",
					"numinlets" : 2,
					"bgcolor" : [ 0.867, 0.867, 0.867, 1.0 ],
					"gradient" : 0,
					"presentation_rect" : [ 0.0, 0.0, 0.0, 0.0 ],
					"fontname" : "Arial",
					"numoutlets" : 1,
					"patching_rect" : [ 107.0, 40.0, 32.5, 18.0 ],
					"outlettype" : [ "" ],
					"fontface" : 0,
					"presentation" : 0,
					"id" : "obj-22",
					"fontsize" : 11.595187,
					"background" : 0,
					"textcolor" : [ 0.0, 0.0, 0.0, 1.0 ],
					"bgcolor2" : [ 0.867, 0.867, 0.867, 1.0 ],
					"ignoreclick" : 0,
					"hidden" : 0
				}

			}
, 			{
				"box" : 				{
					"maxclass" : "message",
					"text" : "64",
					"numinlets" : 2,
					"bgcolor" : [ 0.867, 0.867, 0.867, 1.0 ],
					"gradient" : 0,
					"presentation_rect" : [ 0.0, 0.0, 0.0, 0.0 ],
					"fontname" : "Arial",
					"numoutlets" : 1,
					"patching_rect" : [ 72.0, 40.0, 32.5, 18.0 ],
					"outlettype" : [ "" ],
					"fontface" : 0,
					"presentation" : 0,
					"id" : "obj-23",
					"fontsize" : 11.595187,
					"background" : 0,
					"textcolor" : [ 0.0, 0.0, 0.0, 1.0 ],
					"bgcolor2" : [ 0.867, 0.867, 0.867, 1.0 ],
					"ignoreclick" : 0,
					"hidden" : 0
				}

			}
, 			{
				"box" : 				{
					"maxclass" : "message",
					"text" : "25",
					"numinlets" : 2,
					"bgcolor" : [ 0.867, 0.867, 0.867, 1.0 ],
					"gradient" : 0,
					"presentation_rect" : [ 0.0, 0.0, 0.0, 0.0 ],
					"fontname" : "Arial",
					"numoutlets" : 1,
					"patching_rect" : [ 37.0, 40.0, 32.5, 18.0 ],
					"outlettype" : [ "" ],
					"fontface" : 0,
					"presentation" : 0,
					"id" : "obj-24",
					"fontsize" : 11.595187,
					"background" : 0,
					"textcolor" : [ 0.0, 0.0, 0.0, 1.0 ],
					"bgcolor2" : [ 0.867, 0.867, 0.867, 1.0 ],
					"ignoreclick" : 0,
					"hidden" : 0
				}

			}
, 			{
				"box" : 				{
					"maxclass" : "number",
					"numinlets" : 1,
					"bgcolor" : [ 1.0, 1.0, 1.0, 1.0 ],
					"maximum" : "<none>",
					"presentation_rect" : [ 0.0, 0.0, 0.0, 0.0 ],
					"fontname" : "Arial",
					"outputonclick" : 0,
					"numoutlets" : 2,
					"patching_rect" : [ 353.0, 113.0, 37.0, 20.0 ],
					"format" : 0,
					"outlettype" : [ "int", "bang" ],
					"bordercolor" : [ 0.5, 0.5, 0.5, 1.0 ],
					"fontface" : 0,
					"presentation" : 0,
					"tricolor" : [ 0.75, 0.75, 0.75, 1.0 ],
					"id" : "obj-25",
					"fontsize" : 11.595187,
					"background" : 0,
					"mouseup" : 0,
					"htricolor" : [ 0.87, 0.82, 0.24, 1.0 ],
					"textcolor" : [ 0.0, 0.0, 0.0, 1.0 ],
					"cantchange" : 0,
					"triangle" : 1,
					"hbgcolor" : [ 0.0, 0.0, 0.0, 1.0 ],
					"ignoreclick" : 0,
					"triscale" : 0.9,
					"minimum" : "<none>",
					"htextcolor" : [ 0.870588, 0.870588, 0.870588, 1.0 ],
					"hidden" : 0
				}

			}
, 			{
				"box" : 				{
					"maxclass" : "flonum",
					"numinlets" : 1,
					"bgcolor" : [ 1.0, 1.0, 1.0, 1.0 ],
					"maximum" : "<none>",
					"numdecimalplaces" : 0,
					"presentation_rect" : [ 0.0, 0.0, 0.0, 0.0 ],
					"fontname" : "Arial",
					"outputonclick" : 0,
					"numoutlets" : 2,
					"patching_rect" : [ 353.0, 137.0, 93.0, 20.0 ],
					"outlettype" : [ "float", "bang" ],
					"bordercolor" : [ 0.5, 0.5, 0.5, 1.0 ],
					"fontface" : 0,
					"presentation" : 0,
					"tricolor" : [ 0.75, 0.75, 0.75, 1.0 ],
					"id" : "obj-26",
					"fontsize" : 11.595187,
					"background" : 0,
					"mouseup" : 0,
					"htricolor" : [ 0.87, 0.82, 0.24, 1.0 ],
					"textcolor" : [ 0.0, 0.0, 0.0, 1.0 ],
					"cantchange" : 0,
					"triangle" : 1,
					"hbgcolor" : [ 0.0, 0.0, 0.0, 1.0 ],
					"ignoreclick" : 0,
					"triscale" : 0.9,
					"minimum" : "<none>",
					"htextcolor" : [ 0.870588, 0.870588, 0.870588, 1.0 ],
					"hidden" : 0
				}

			}
, 			{
				"box" : 				{
					"maxclass" : "flonum",
					"numinlets" : 1,
					"bgcolor" : [ 1.0, 1.0, 1.0, 1.0 ],
					"maximum" : "<none>",
					"numdecimalplaces" : 0,
					"presentation_rect" : [ 0.0, 0.0, 0.0, 0.0 ],
					"fontname" : "Arial",
					"outputonclick" : 0,
					"numoutlets" : 2,
					"patching_rect" : [ 353.0, 88.0, 93.0, 20.0 ],
					"outlettype" : [ "float", "bang" ],
					"bordercolor" : [ 0.5, 0.5, 0.5, 1.0 ],
					"fontface" : 0,
					"presentation" : 0,
					"tricolor" : [ 0.75, 0.75, 0.75, 1.0 ],
					"id" : "obj-27",
					"fontsize" : 11.595187,
					"background" : 0,
					"mouseup" : 0,
					"htricolor" : [ 0.87, 0.82, 0.24, 1.0 ],
					"textcolor" : [ 0.0, 0.0, 0.0, 1.0 ],
					"cantchange" : 0,
					"triangle" : 1,
					"hbgcolor" : [ 0.0, 0.0, 0.0, 1.0 ],
					"ignoreclick" : 0,
					"triscale" : 0.9,
					"minimum" : "<none>",
					"htextcolor" : [ 0.870588, 0.870588, 0.870588, 1.0 ],
					"hidden" : 0
				}

			}
, 			{
				"box" : 				{
					"maxclass" : "number",
					"numinlets" : 1,
					"bgcolor" : [ 0.415686, 1.0, 0.384314, 1.0 ],
					"maximum" : "<none>",
					"presentation_rect" : [ 0.0, 0.0, 0.0, 0.0 ],
					"fontname" : "Arial",
					"outputonclick" : 0,
					"numoutlets" : 2,
					"patching_rect" : [ 46.0, 72.0, 37.0, 20.0 ],
					"format" : 0,
					"outlettype" : [ "int", "bang" ],
					"bordercolor" : [ 0.5, 0.5, 0.5, 1.0 ],
					"fontface" : 0,
					"presentation" : 0,
					"tricolor" : [ 0.75, 0.75, 0.75, 1.0 ],
					"id" : "obj-28",
					"fontsize" : 11.595187,
					"background" : 0,
					"mouseup" : 0,
					"htricolor" : [ 0.87, 0.82, 0.24, 1.0 ],
					"textcolor" : [ 0.0, 0.0, 0.0, 1.0 ],
					"cantchange" : 0,
					"triangle" : 1,
					"hbgcolor" : [ 0.0, 0.0, 0.0, 1.0 ],
					"ignoreclick" : 0,
					"triscale" : 0.9,
					"minimum" : "<none>",
					"htextcolor" : [ 0.870588, 0.870588, 0.870588, 1.0 ],
					"hidden" : 0
				}

			}
, 			{
				"box" : 				{
					"maxclass" : "comment",
					"text" : "< an integer",
					"numinlets" : 1,
					"frgb" : [ 0.0, 0.0, 0.0, 1.0 ],
					"bgcolor" : [ 1.0, 1.0, 1.0, 0.0 ],
					"presentation_rect" : [ 0.0, 0.0, 0.0, 0.0 ],
					"fontname" : "Arial",
					"numoutlets" : 0,
					"patching_rect" : [ 82.0, 74.0, 72.0, 20.0 ],
					"fontface" : 0,
					"presentation" : 0,
					"id" : "obj-29",
					"fontsize" : 11.595187,
					"background" : 0,
					"underline" : 0,
					"textcolor" : [ 0.0, 0.0, 0.0, 1.0 ],
					"ignoreclick" : 1,
					"hidden" : 0
				}

			}
, 			{
				"box" : 				{
					"maxclass" : "flonum",
					"numinlets" : 1,
					"bgcolor" : [ 0.415686, 1.0, 0.384314, 1.0 ],
					"maximum" : "<none>",
					"numdecimalplaces" : 0,
					"presentation_rect" : [ 0.0, 0.0, 0.0, 0.0 ],
					"fontname" : "Arial",
					"outputonclick" : 0,
					"numoutlets" : 2,
					"patching_rect" : [ 106.0, 127.0, 59.0, 20.0 ],
					"outlettype" : [ "float", "bang" ],
					"bordercolor" : [ 0.5, 0.5, 0.5, 1.0 ],
					"fontface" : 0,
					"presentation" : 0,
					"tricolor" : [ 0.75, 0.75, 0.75, 1.0 ],
					"id" : "obj-30",
					"fontsize" : 11.595187,
					"background" : 0,
					"mouseup" : 0,
					"htricolor" : [ 0.87, 0.82, 0.24, 1.0 ],
					"textcolor" : [ 0.0, 0.0, 0.0, 1.0 ],
					"cantchange" : 0,
					"triangle" : 1,
					"hbgcolor" : [ 0.0, 0.0, 0.0, 1.0 ],
					"ignoreclick" : 0,
					"triscale" : 0.9,
					"minimum" : "<none>",
					"htextcolor" : [ 0.870588, 0.870588, 0.870588, 1.0 ],
					"hidden" : 0
				}

			}
, 			{
				"box" : 				{
					"maxclass" : "newobj",
					"text" : "print result",
					"numinlets" : 1,
					"bgcolor" : [ 1.0, 1.0, 1.0, 1.0 ],
					"presentation_rect" : [ 0.0, 0.0, 0.0, 0.0 ],
					"fontname" : "Arial",
					"numoutlets" : 0,
					"patching_rect" : [ 353.0, 164.0, 65.0, 20.0 ],
					"fontface" : 0,
					"presentation" : 0,
					"id" : "obj-32",
					"fontsize" : 11.595187,
					"background" : 0,
					"color" : [ 0.73, 0.82, 0.63, 1.0 ],
					"textcolor" : [ 0.0, 0.0, 0.0, 1.0 ],
					"ignoreclick" : 0,
					"hidden" : 0
				}

			}
, 			{
				"box" : 				{
					"maxclass" : "newobj",
					"text" : "print int",
					"numinlets" : 1,
					"bgcolor" : [ 1.0, 1.0, 1.0, 1.0 ],
					"presentation_rect" : [ 0.0, 0.0, 0.0, 0.0 ],
					"fontname" : "Arial",
					"numoutlets" : 0,
					"patching_rect" : [ 46.0, 160.0, 49.0, 20.0 ],
					"fontface" : 0,
					"presentation" : 0,
					"id" : "obj-34",
					"fontsize" : 11.595187,
					"background" : 0,
					"color" : [ 0.73, 0.82, 0.63, 1.0 ],
					"textcolor" : [ 0.0, 0.0, 0.0, 1.0 ],
					"ignoreclick" : 0,
					"hidden" : 0
				}

			}
, 			{
				"box" : 				{
					"maxclass" : "comment",
					"text" : "< a floating-point number",
					"numinlets" : 1,
					"frgb" : [ 0.0, 0.0, 0.0, 1.0 ],
					"bgcolor" : [ 1.0, 1.0, 1.0, 0.0 ],
					"presentation_rect" : [ 0.0, 0.0, 0.0, 0.0 ],
					"fontname" : "Arial",
					"numoutlets" : 0,
					"patching_rect" : [ 164.0, 127.0, 139.0, 20.0 ],
					"fontface" : 0,
					"presentation" : 0,
					"id" : "obj-38",
					"fontsize" : 11.595187,
					"background" : 0,
					"underline" : 0,
					"textcolor" : [ 0.0, 0.0, 0.0, 1.0 ],
					"ignoreclick" : 1,
					"hidden" : 0
				}

			}
 ],
		"lines" : [ 			{
				"patchline" : 				{
					"source" : [ "obj-26", 0 ],
					"destination" : [ "obj-32", 0 ],
					"hidden" : 0,
					"color" : [ 0.0, 0.0, 0.0, 1.0 ],
					"midpoints" : [  ]
				}

			}
, 			{
				"patchline" : 				{
					"source" : [ "obj-25", 0 ],
					"destination" : [ "obj-26", 0 ],
					"hidden" : 0,
					"color" : [ 0.0, 0.0, 0.0, 1.0 ],
					"midpoints" : [  ]
				}

			}
, 			{
				"patchline" : 				{
					"source" : [ "obj-27", 0 ],
					"destination" : [ "obj-25", 0 ],
					"hidden" : 0,
					"color" : [ 0.0, 0.0, 0.0, 1.0 ],
					"midpoints" : [  ]
				}

			}
, 			{
				"patchline" : 				{
					"source" : [ "obj-30", 0 ],
					"destination" : [ "obj-10", 0 ],
					"hidden" : 0,
					"color" : [ 0.0, 0.0, 0.0, 1.0 ],
					"midpoints" : [  ]
				}

			}
, 			{
				"patchline" : 				{
					"source" : [ "obj-12", 0 ],
					"destination" : [ "obj-30", 0 ],
					"hidden" : 0,
					"color" : [ 0.0, 0.0, 0.0, 1.0 ],
					"midpoints" : [  ]
				}

			}
, 			{
				"patchline" : 				{
					"source" : [ "obj-13", 0 ],
					"destination" : [ "obj-30", 0 ],
					"hidden" : 0,
					"color" : [ 0.0, 0.0, 0.0, 1.0 ],
					"midpoints" : [  ]
				}

			}
, 			{
				"patchline" : 				{
					"source" : [ "obj-14", 0 ],
					"destination" : [ "obj-30", 0 ],
					"hidden" : 0,
					"color" : [ 0.0, 0.0, 0.0, 1.0 ],
					"midpoints" : [  ]
				}

			}
, 			{
				"patchline" : 				{
					"source" : [ "obj-15", 0 ],
					"destination" : [ "obj-30", 0 ],
					"hidden" : 0,
					"color" : [ 0.0, 0.0, 0.0, 1.0 ],
					"midpoints" : [  ]
				}

			}
, 			{
				"patchline" : 				{
					"source" : [ "obj-16", 0 ],
					"destination" : [ "obj-30", 0 ],
					"hidden" : 0,
					"color" : [ 0.0, 0.0, 0.0, 1.0 ],
					"midpoints" : [  ]
				}

			}
, 			{
				"patchline" : 				{
					"source" : [ "obj-17", 0 ],
					"destination" : [ "obj-30", 0 ],
					"hidden" : 0,
					"color" : [ 0.0, 0.0, 0.0, 1.0 ],
					"midpoints" : [  ]
				}

			}
, 			{
				"patchline" : 				{
					"source" : [ "obj-11", 0 ],
					"destination" : [ "obj-30", 0 ],
					"hidden" : 0,
					"color" : [ 0.0, 0.0, 0.0, 1.0 ],
					"midpoints" : [  ]
				}

			}
, 			{
				"patchline" : 				{
					"source" : [ "obj-28", 0 ],
					"destination" : [ "obj-34", 0 ],
					"hidden" : 0,
					"color" : [ 0.0, 0.0, 0.0, 1.0 ],
					"midpoints" : [  ]
				}

			}
, 			{
				"patchline" : 				{
					"source" : [ "obj-18", 0 ],
					"destination" : [ "obj-28", 0 ],
					"hidden" : 0,
					"color" : [ 0.0, 0.0, 0.0, 1.0 ],
					"midpoints" : [  ]
				}

			}
, 			{
				"patchline" : 				{
					"source" : [ "obj-20", 0 ],
					"destination" : [ "obj-28", 0 ],
					"hidden" : 0,
					"color" : [ 0.0, 0.0, 0.0, 1.0 ],
					"midpoints" : [  ]
				}

			}
, 			{
				"patchline" : 				{
					"source" : [ "obj-24", 0 ],
					"destination" : [ "obj-28", 0 ],
					"hidden" : 0,
					"color" : [ 0.0, 0.0, 0.0, 1.0 ],
					"midpoints" : [  ]
				}

			}
, 			{
				"patchline" : 				{
					"source" : [ "obj-23", 0 ],
					"destination" : [ "obj-28", 0 ],
					"hidden" : 0,
					"color" : [ 0.0, 0.0, 0.0, 1.0 ],
					"midpoints" : [  ]
				}

			}
, 			{
				"patchline" : 				{
					"source" : [ "obj-22", 0 ],
					"destination" : [ "obj-28", 0 ],
					"hidden" : 0,
					"color" : [ 0.0, 0.0, 0.0, 1.0 ],
					"midpoints" : [  ]
				}

			}
, 			{
				"patchline" : 				{
					"source" : [ "obj-21", 0 ],
					"destination" : [ "obj-28", 0 ],
					"hidden" : 0,
					"color" : [ 0.0, 0.0, 0.0, 1.0 ],
					"midpoints" : [  ]
				}

			}
, 			{
				"patchline" : 				{
					"source" : [ "obj-1", 0 ],
					"destination" : [ "obj-28", 0 ],
					"hidden" : 0,
					"color" : [ 0.0, 0.0, 0.0, 1.0 ],
					"midpoints" : [  ]
				}

			}
 ]
	}

}
