{
	"patcher" : 	{
		"fileversion" : 1,
		"rect" : [ 297.0, 59.0, 1001.0, 767.0 ],
		"bglocked" : 0,
		"defrect" : [ 297.0, 59.0, 1001.0, 767.0 ],
		"openrect" : [ 0.0, 0.0, 0.0, 0.0 ],
		"openinpresentation" : 1,
		"default_fontsize" : 12.0,
		"default_fontface" : 0,
		"default_fontname" : "Arial",
		"gridonopen" : 0,
		"gridsize" : [ 15.0, 15.0 ],
		"gridsnaponopen" : 0,
		"toolbarvisible" : 1,
		"boxanimatetime" : 200,
		"imprint" : 0,
		"metadata" : [  ],
		"boxes" : [ 			{
				"box" : 				{
					"maxclass" : "comment",
					"text" : "HEX:",
					"numinlets" : 1,
					"presentation_rect" : [ 205.0, 201.0, 0.0, 0.0 ],
					"fontname" : "Verdana",
					"numoutlets" : 0,
					"patching_rect" : [ 200.0, 201.0, 38.0, 16.0 ],
					"fontsize" : 8.0,
					"id" : "obj-39"
				}

			}
, 			{
				"box" : 				{
					"maxclass" : "comment",
					"text" : "0xE",
					"numinlets" : 1,
					"fontname" : "Verdana",
					"numoutlets" : 0,
					"patching_rect" : [ 507.0, 201.0, 25.0, 16.0 ],
					"fontsize" : 8.0,
					"id" : "obj-38"
				}

			}
, 			{
				"box" : 				{
					"maxclass" : "comment",
					"text" : "0xD",
					"numinlets" : 1,
					"fontname" : "Verdana",
					"numoutlets" : 0,
					"patching_rect" : [ 461.0, 201.0, 25.0, 16.0 ],
					"fontsize" : 8.0,
					"id" : "obj-37"
				}

			}
, 			{
				"box" : 				{
					"maxclass" : "comment",
					"text" : "0xC",
					"numinlets" : 1,
					"fontname" : "Verdana",
					"numoutlets" : 0,
					"patching_rect" : [ 417.0, 201.0, 25.0, 16.0 ],
					"fontsize" : 8.0,
					"id" : "obj-36"
				}

			}
, 			{
				"box" : 				{
					"maxclass" : "comment",
					"text" : "0xB",
					"numinlets" : 1,
					"fontname" : "Verdana",
					"numoutlets" : 0,
					"patching_rect" : [ 373.0, 201.0, 25.0, 16.0 ],
					"fontsize" : 8.0,
					"id" : "obj-32"
				}

			}
, 			{
				"box" : 				{
					"maxclass" : "comment",
					"text" : "0xA",
					"numinlets" : 1,
					"fontname" : "Verdana",
					"numoutlets" : 0,
					"patching_rect" : [ 329.0, 201.0, 25.0, 16.0 ],
					"fontsize" : 8.0,
					"id" : "obj-31"
				}

			}
, 			{
				"box" : 				{
					"maxclass" : "comment",
					"text" : "0x9",
					"numinlets" : 1,
					"fontname" : "Verdana",
					"numoutlets" : 0,
					"patching_rect" : [ 285.0, 201.0, 25.0, 16.0 ],
					"fontsize" : 8.0,
					"id" : "obj-30"
				}

			}
, 			{
				"box" : 				{
					"maxclass" : "comment",
					"text" : "0x8",
					"numinlets" : 1,
					"fontname" : "Verdana",
					"numoutlets" : 0,
					"patching_rect" : [ 241.0, 201.0, 25.0, 16.0 ],
					"fontsize" : 8.0,
					"id" : "obj-22"
				}

			}
, 			{
				"box" : 				{
					"maxclass" : "number",
					"numinlets" : 1,
					"presentation_rect" : [ 589.0, 96.0, 139.0, 117.0 ],
					"fontname" : "Arial",
					"numoutlets" : 2,
					"patching_rect" : [ 606.0, 572.0, 139.0, 117.0 ],
					"outlettype" : [ "int", "bang" ],
					"presentation" : 1,
					"fontsize" : 96.0,
					"id" : "obj-63"
				}

			}
, 			{
				"box" : 				{
					"maxclass" : "comment",
					"text" : "MIDI Channel",
					"numinlets" : 1,
					"presentation_rect" : [ 615.0, 79.0, 86.0, 20.0 ],
					"bgcolor" : [ 0.694118, 0.694118, 0.694118, 1.0 ],
					"fontname" : "Arial",
					"numoutlets" : 0,
					"patching_rect" : [ 632.0, 555.0, 86.0, 20.0 ],
					"presentation" : 1,
					"fontsize" : 12.0,
					"id" : "obj-75"
				}

			}
, 			{
				"box" : 				{
					"maxclass" : "number",
					"format" : 1,
					"numinlets" : 1,
					"presentation_rect" : [ 431.0, 176.0, 126.0, 20.0 ],
					"fontname" : "Arial",
					"numoutlets" : 2,
					"patching_rect" : [ 447.0, 666.0, 126.0, 20.0 ],
					"outlettype" : [ "int", "bang" ],
					"presentation" : 1,
					"fontsize" : 12.0,
					"id" : "obj-15"
				}

			}
, 			{
				"box" : 				{
					"maxclass" : "number",
					"format" : 1,
					"numinlets" : 1,
					"presentation_rect" : [ 299.0, 176.0, 126.0, 20.0 ],
					"fontname" : "Arial",
					"numoutlets" : 2,
					"patching_rect" : [ 315.0, 666.0, 126.0, 20.0 ],
					"outlettype" : [ "int", "bang" ],
					"presentation" : 1,
					"fontsize" : 12.0,
					"id" : "obj-16"
				}

			}
, 			{
				"box" : 				{
					"maxclass" : "number",
					"format" : 1,
					"numinlets" : 1,
					"presentation_rect" : [ 166.0, 176.0, 126.0, 20.0 ],
					"fontname" : "Arial",
					"numoutlets" : 2,
					"patching_rect" : [ 182.0, 666.0, 126.0, 20.0 ],
					"outlettype" : [ "int", "bang" ],
					"presentation" : 1,
					"fontsize" : 12.0,
					"id" : "obj-17"
				}

			}
, 			{
				"box" : 				{
					"maxclass" : "number",
					"format" : 3,
					"numinlets" : 1,
					"presentation_rect" : [ 431.0, 143.0, 126.0, 20.0 ],
					"fontname" : "Arial",
					"numoutlets" : 2,
					"patching_rect" : [ 447.0, 635.0, 126.0, 20.0 ],
					"outlettype" : [ "int", "bang" ],
					"presentation" : 1,
					"fontsize" : 12.0,
					"id" : "obj-5"
				}

			}
, 			{
				"box" : 				{
					"maxclass" : "number",
					"format" : 3,
					"numinlets" : 1,
					"presentation_rect" : [ 299.0, 143.0, 126.0, 20.0 ],
					"fontname" : "Arial",
					"numoutlets" : 2,
					"patching_rect" : [ 315.0, 635.0, 126.0, 20.0 ],
					"outlettype" : [ "int", "bang" ],
					"presentation" : 1,
					"fontsize" : 12.0,
					"id" : "obj-10"
				}

			}
, 			{
				"box" : 				{
					"maxclass" : "number",
					"format" : 3,
					"numinlets" : 1,
					"presentation_rect" : [ 166.0, 143.0, 126.0, 20.0 ],
					"fontname" : "Arial",
					"numoutlets" : 2,
					"patching_rect" : [ 182.0, 635.0, 126.0, 20.0 ],
					"outlettype" : [ "int", "bang" ],
					"presentation" : 1,
					"fontsize" : 12.0,
					"id" : "obj-14"
				}

			}
, 			{
				"box" : 				{
					"maxclass" : "newobj",
					"text" : "midiin",
					"numinlets" : 1,
					"presentation_rect" : [ 35.0, 41.0, 64.0, 20.0 ],
					"fontname" : "Arial",
					"numoutlets" : 1,
					"patching_rect" : [ 32.0, 91.0, 42.0, 20.0 ],
					"outlettype" : [ "int" ],
					"presentation" : 1,
					"fontsize" : 12.0,
					"id" : "obj-79"
				}

			}
, 			{
				"box" : 				{
					"maxclass" : "comment",
					"text" : "Divide by sixteen: if the result is >= 8  it's a status byte, otherwise it's a data byte. It should always be less than 16. A value of 15 would mean a \"system\" message.",
					"linecount" : 3,
					"numinlets" : 1,
					"fontname" : "Arial",
					"numoutlets" : 0,
					"patching_rect" : [ 268.0, 121.0, 330.0, 48.0 ],
					"fontsize" : 12.0,
					"id" : "obj-46"
				}

			}
, 			{
				"box" : 				{
					"maxclass" : "comment",
					"text" : "hex",
					"numinlets" : 1,
					"presentation_rect" : [ 42.0, 176.0, 541.0, 20.0 ],
					"bgcolor" : [ 0.501961, 0.717647, 0.764706, 1.0 ],
					"fontname" : "Arial",
					"numoutlets" : 0,
					"patching_rect" : [ 52.0, 666.0, 541.0, 20.0 ],
					"presentation" : 1,
					"fontsize" : 12.0,
					"id" : "obj-43"
				}

			}
, 			{
				"box" : 				{
					"maxclass" : "message",
					"text" : "hidden 1",
					"numinlets" : 2,
					"fontname" : "Arial",
					"hidden" : 1,
					"numoutlets" : 1,
					"patching_rect" : [ 395.0, 515.0, 57.0, 18.0 ],
					"outlettype" : [ "" ],
					"fontsize" : 12.0,
					"id" : "obj-40"
				}

			}
, 			{
				"box" : 				{
					"maxclass" : "message",
					"text" : "hidden 0",
					"numinlets" : 2,
					"fontname" : "Arial",
					"hidden" : 1,
					"numoutlets" : 1,
					"patching_rect" : [ 470.0, 515.0, 57.0, 18.0 ],
					"outlettype" : [ "" ],
					"fontsize" : 12.0,
					"id" : "obj-35"
				}

			}
, 			{
				"box" : 				{
					"maxclass" : "newobj",
					"text" : "select -1",
					"numinlets" : 2,
					"fontname" : "Arial",
					"hidden" : 1,
					"numoutlets" : 2,
					"patching_rect" : [ 395.0, 480.0, 71.0, 20.0 ],
					"outlettype" : [ "bang", "" ],
					"fontsize" : 12.0,
					"id" : "obj-34"
				}

			}
, 			{
				"box" : 				{
					"maxclass" : "message",
					"text" : "-1 -1 -1",
					"numinlets" : 2,
					"fontname" : "Arial",
					"hidden" : 1,
					"numoutlets" : 1,
					"patching_rect" : [ 745.0, 357.0, 49.0, 18.0 ],
					"outlettype" : [ "" ],
					"fontsize" : 12.0,
					"id" : "obj-33"
				}

			}
, 			{
				"box" : 				{
					"maxclass" : "comment",
					"text" : "grouped MIDI message bytes ",
					"numinlets" : 1,
					"fontname" : "Arial",
					"numoutlets" : 0,
					"patching_rect" : [ 279.0, 368.0, 200.0, 20.0 ],
					"fontsize" : 12.0,
					"id" : "obj-29"
				}

			}
, 			{
				"box" : 				{
					"maxclass" : "comment",
					"text" : "MIDI bytes in",
					"numinlets" : 1,
					"presentation_rect" : [ 170.0, 41.0, 90.0, 20.0 ],
					"fontname" : "Arial",
					"numoutlets" : 0,
					"patching_rect" : [ 46.0, 132.0, 90.0, 20.0 ],
					"presentation" : 1,
					"fontsize" : 12.0,
					"id" : "obj-28"
				}

			}
, 			{
				"box" : 				{
					"maxclass" : "comment",
					"text" : "2-byte MIDI messages ",
					"numinlets" : 1,
					"fontname" : "Arial",
					"numoutlets" : 0,
					"patching_rect" : [ 442.0, 289.0, 147.0, 20.0 ],
					"fontsize" : 12.0,
					"id" : "obj-27"
				}

			}
, 			{
				"box" : 				{
					"maxclass" : "comment",
					"text" : "3-byte MIDI messages ",
					"numinlets" : 1,
					"fontname" : "Arial",
					"numoutlets" : 0,
					"patching_rect" : [ 242.0, 289.0, 147.0, 20.0 ],
					"fontsize" : 12.0,
					"id" : "obj-26"
				}

			}
, 			{
				"box" : 				{
					"maxclass" : "number",
					"numinlets" : 1,
					"presentation_rect" : [ 431.0, 110.0, 126.0, 20.0 ],
					"fontname" : "Arial",
					"numoutlets" : 2,
					"patching_rect" : [ 447.0, 571.0, 126.0, 20.0 ],
					"outlettype" : [ "int", "bang" ],
					"presentation" : 1,
					"fontsize" : 12.0,
					"id" : "obj-24"
				}

			}
, 			{
				"box" : 				{
					"maxclass" : "number",
					"numinlets" : 1,
					"presentation_rect" : [ 299.0, 110.0, 126.0, 20.0 ],
					"fontname" : "Arial",
					"numoutlets" : 2,
					"patching_rect" : [ 315.0, 571.0, 126.0, 20.0 ],
					"outlettype" : [ "int", "bang" ],
					"presentation" : 1,
					"fontsize" : 12.0,
					"id" : "obj-23"
				}

			}
, 			{
				"box" : 				{
					"maxclass" : "number",
					"numinlets" : 1,
					"presentation_rect" : [ 166.0, 110.0, 126.0, 20.0 ],
					"fontname" : "Arial",
					"numoutlets" : 2,
					"patching_rect" : [ 182.0, 571.0, 126.0, 20.0 ],
					"outlettype" : [ "int", "bang" ],
					"presentation" : 1,
					"fontsize" : 12.0,
					"id" : "obj-21"
				}

			}
, 			{
				"box" : 				{
					"maxclass" : "newobj",
					"text" : "unpack i i i",
					"numinlets" : 1,
					"fontname" : "Arial",
					"numoutlets" : 3,
					"patching_rect" : [ 182.0, 447.0, 284.0, 20.0 ],
					"outlettype" : [ "int", "int", "int" ],
					"fontsize" : 12.0,
					"id" : "obj-20"
				}

			}
, 			{
				"box" : 				{
					"maxclass" : "message",
					"text" : "144 6 7",
					"numinlets" : 2,
					"fontname" : "Arial",
					"numoutlets" : 1,
					"patching_rect" : [ 277.0, 349.0, 195.0, 18.0 ],
					"outlettype" : [ "" ],
					"fontsize" : 12.0,
					"id" : "obj-18"
				}

			}
, 			{
				"box" : 				{
					"maxclass" : "message",
					"text" : "2",
					"numinlets" : 2,
					"fontname" : "Arial",
					"numoutlets" : 1,
					"patching_rect" : [ 431.0, 270.0, 84.5, 18.0 ],
					"outlettype" : [ "" ],
					"fontsize" : 12.0,
					"id" : "obj-13"
				}

			}
, 			{
				"box" : 				{
					"maxclass" : "message",
					"text" : "3",
					"numinlets" : 2,
					"fontname" : "Arial",
					"numoutlets" : 1,
					"patching_rect" : [ 231.0, 270.0, 90.5, 18.0 ],
					"outlettype" : [ "" ],
					"fontsize" : 12.0,
					"id" : "obj-12"
				}

			}
, 			{
				"box" : 				{
					"maxclass" : "newobj",
					"text" : "select 8 9 10 11 12 13 14",
					"numinlets" : 1,
					"fontname" : "Arial",
					"numoutlets" : 8,
					"patching_rect" : [ 231.0, 181.0, 333.0, 20.0 ],
					"outlettype" : [ "bang", "bang", "bang", "bang", "bang", "bang", "bang", "" ],
					"fontsize" : 12.0,
					"id" : "obj-9"
				}

			}
, 			{
				"box" : 				{
					"maxclass" : "newobj",
					"text" : "t i i i b",
					"numinlets" : 1,
					"fontname" : "Arial",
					"numoutlets" : 4,
					"patching_rect" : [ 182.0, 68.0, 581.5, 20.0 ],
					"outlettype" : [ "int", "int", "int", "bang" ],
					"fontsize" : 12.0,
					"id" : "obj-7"
				}

			}
, 			{
				"box" : 				{
					"maxclass" : "newobj",
					"text" : "zl group",
					"numinlets" : 2,
					"fontname" : "Arial",
					"numoutlets" : 2,
					"patching_rect" : [ 182.0, 361.0, 68.0, 20.0 ],
					"outlettype" : [ "", "" ],
					"fontsize" : 12.0,
					"id" : "obj-4"
				}

			}
, 			{
				"box" : 				{
					"maxclass" : "newobj",
					"text" : "/ 16",
					"numinlets" : 2,
					"fontname" : "Arial",
					"numoutlets" : 1,
					"patching_rect" : [ 231.0, 131.0, 32.5, 20.0 ],
					"outlettype" : [ "int" ],
					"fontsize" : 12.0,
					"id" : "obj-3"
				}

			}
, 			{
				"box" : 				{
					"maxclass" : "number",
					"numinlets" : 1,
					"presentation_rect" : [ 100.0, 41.0, 69.0, 20.0 ],
					"fontname" : "Arial",
					"numoutlets" : 2,
					"patching_rect" : [ 32.0, 154.0, 69.0, 20.0 ],
					"outlettype" : [ "int", "bang" ],
					"presentation" : 1,
					"fontsize" : 12.0,
					"id" : "obj-1"
				}

			}
, 			{
				"box" : 				{
					"maxclass" : "comment",
					"text" : "decimal",
					"numinlets" : 1,
					"presentation_rect" : [ 42.0, 110.0, 539.0, 20.0 ],
					"bgcolor" : [ 0.945098, 0.913725, 0.407843, 1.0 ],
					"fontname" : "Arial",
					"numoutlets" : 0,
					"patching_rect" : [ 52.0, 571.0, 539.0, 20.0 ],
					"presentation" : 1,
					"fontsize" : 12.0,
					"id" : "obj-41"
				}

			}
, 			{
				"box" : 				{
					"maxclass" : "comment",
					"text" : "binary",
					"numinlets" : 1,
					"presentation_rect" : [ 42.0, 143.0, 541.0, 20.0 ],
					"bgcolor" : [ 0.545098, 0.85098, 0.592157, 1.0 ],
					"fontname" : "Arial",
					"numoutlets" : 0,
					"patching_rect" : [ 52.0, 635.0, 541.0, 20.0 ],
					"presentation" : 1,
					"fontsize" : 12.0,
					"id" : "obj-42"
				}

			}
, 			{
				"box" : 				{
					"maxclass" : "comment",
					"text" : "status byte",
					"numinlets" : 1,
					"presentation_rect" : [ 195.0, 95.0, 72.0, 20.0 ],
					"bgcolor" : [ 0.694118, 0.694118, 0.694118, 1.0 ],
					"fontname" : "Arial",
					"numoutlets" : 0,
					"patching_rect" : [ 215.0, 553.0, 72.0, 20.0 ],
					"presentation" : 1,
					"fontsize" : 12.0,
					"id" : "obj-6"
				}

			}
, 			{
				"box" : 				{
					"maxclass" : "comment",
					"text" : "data byte 2",
					"numinlets" : 1,
					"presentation_rect" : [ 457.0, 94.0, 75.0, 20.0 ],
					"bgcolor" : [ 0.694118, 0.694118, 0.694118, 1.0 ],
					"fontname" : "Arial",
					"numoutlets" : 0,
					"patching_rect" : [ 477.0, 552.0, 75.0, 20.0 ],
					"presentation" : 1,
					"fontsize" : 12.0,
					"id" : "obj-11"
				}

			}
, 			{
				"box" : 				{
					"maxclass" : "comment",
					"text" : "data byte 1",
					"numinlets" : 1,
					"presentation_rect" : [ 324.0, 95.0, 72.0, 20.0 ],
					"bgcolor" : [ 0.694118, 0.694118, 0.694118, 1.0 ],
					"fontname" : "Arial",
					"numoutlets" : 0,
					"patching_rect" : [ 344.0, 553.0, 72.0, 20.0 ],
					"presentation" : 1,
					"fontsize" : 12.0,
					"id" : "obj-8"
				}

			}
 ],
		"lines" : [ 			{
				"patchline" : 				{
					"source" : [ "obj-9", 6 ],
					"destination" : [ "obj-12", 0 ],
					"hidden" : 0,
					"midpoints" : [ 509.642853, 202.0, 498.0, 202.0, 498.0, 222.0 ]
				}

			}
, 			{
				"patchline" : 				{
					"source" : [ "obj-35", 0 ],
					"destination" : [ "obj-15", 0 ],
					"hidden" : 1,
					"midpoints" : [  ]
				}

			}
, 			{
				"patchline" : 				{
					"source" : [ "obj-40", 0 ],
					"destination" : [ "obj-15", 0 ],
					"hidden" : 1,
					"midpoints" : [  ]
				}

			}
, 			{
				"patchline" : 				{
					"source" : [ "obj-35", 0 ],
					"destination" : [ "obj-5", 0 ],
					"hidden" : 1,
					"midpoints" : [  ]
				}

			}
, 			{
				"patchline" : 				{
					"source" : [ "obj-40", 0 ],
					"destination" : [ "obj-5", 0 ],
					"hidden" : 1,
					"midpoints" : [  ]
				}

			}
, 			{
				"patchline" : 				{
					"source" : [ "obj-5", 0 ],
					"destination" : [ "obj-15", 0 ],
					"hidden" : 0,
					"midpoints" : [  ]
				}

			}
, 			{
				"patchline" : 				{
					"source" : [ "obj-24", 0 ],
					"destination" : [ "obj-5", 0 ],
					"hidden" : 0,
					"midpoints" : [  ]
				}

			}
, 			{
				"patchline" : 				{
					"source" : [ "obj-10", 0 ],
					"destination" : [ "obj-16", 0 ],
					"hidden" : 0,
					"midpoints" : [  ]
				}

			}
, 			{
				"patchline" : 				{
					"source" : [ "obj-23", 0 ],
					"destination" : [ "obj-10", 0 ],
					"hidden" : 0,
					"midpoints" : [  ]
				}

			}
, 			{
				"patchline" : 				{
					"source" : [ "obj-14", 0 ],
					"destination" : [ "obj-17", 0 ],
					"hidden" : 0,
					"midpoints" : [  ]
				}

			}
, 			{
				"patchline" : 				{
					"source" : [ "obj-21", 0 ],
					"destination" : [ "obj-14", 0 ],
					"hidden" : 0,
					"midpoints" : [  ]
				}

			}
, 			{
				"patchline" : 				{
					"source" : [ "obj-3", 0 ],
					"destination" : [ "obj-9", 0 ],
					"hidden" : 0,
					"midpoints" : [  ]
				}

			}
, 			{
				"patchline" : 				{
					"source" : [ "obj-7", 1 ],
					"destination" : [ "obj-3", 0 ],
					"hidden" : 0,
					"midpoints" : [ 379.0, 104.0, 240.5, 104.0 ]
				}

			}
, 			{
				"patchline" : 				{
					"source" : [ "obj-40", 0 ],
					"destination" : [ "obj-11", 0 ],
					"hidden" : 1,
					"midpoints" : [  ]
				}

			}
, 			{
				"patchline" : 				{
					"source" : [ "obj-35", 0 ],
					"destination" : [ "obj-11", 0 ],
					"hidden" : 1,
					"midpoints" : [  ]
				}

			}
, 			{
				"patchline" : 				{
					"source" : [ "obj-9", 3 ],
					"destination" : [ "obj-12", 0 ],
					"hidden" : 0,
					"midpoints" : [  ]
				}

			}
, 			{
				"patchline" : 				{
					"source" : [ "obj-9", 2 ],
					"destination" : [ "obj-12", 0 ],
					"hidden" : 0,
					"midpoints" : [  ]
				}

			}
, 			{
				"patchline" : 				{
					"source" : [ "obj-9", 1 ],
					"destination" : [ "obj-12", 0 ],
					"hidden" : 0,
					"midpoints" : [  ]
				}

			}
, 			{
				"patchline" : 				{
					"source" : [ "obj-9", 0 ],
					"destination" : [ "obj-12", 0 ],
					"hidden" : 0,
					"midpoints" : [  ]
				}

			}
, 			{
				"patchline" : 				{
					"source" : [ "obj-9", 4 ],
					"destination" : [ "obj-13", 0 ],
					"hidden" : 0,
					"midpoints" : [ 419.928558, 201.0, 414.0, 201.0, 414.0, 255.0, 440.5, 255.0 ]
				}

			}
, 			{
				"patchline" : 				{
					"source" : [ "obj-9", 5 ],
					"destination" : [ "obj-13", 0 ],
					"hidden" : 0,
					"midpoints" : [ 464.785706, 201.0, 456.0, 201.0, 456.0, 255.0, 440.5, 255.0 ]
				}

			}
, 			{
				"patchline" : 				{
					"source" : [ "obj-20", 0 ],
					"destination" : [ "obj-21", 0 ],
					"hidden" : 1,
					"midpoints" : [ 191.5, 469.0, 191.5, 469.0 ]
				}

			}
, 			{
				"patchline" : 				{
					"source" : [ "obj-20", 1 ],
					"destination" : [ "obj-23", 0 ],
					"hidden" : 1,
					"midpoints" : [ 324.0, 469.0, 324.5, 469.0 ]
				}

			}
, 			{
				"patchline" : 				{
					"source" : [ "obj-20", 2 ],
					"destination" : [ "obj-34", 0 ],
					"hidden" : 1,
					"midpoints" : [ 456.5, 474.0, 404.5, 474.0 ]
				}

			}
, 			{
				"patchline" : 				{
					"source" : [ "obj-34", 1 ],
					"destination" : [ "obj-35", 0 ],
					"hidden" : 1,
					"midpoints" : [  ]
				}

			}
, 			{
				"patchline" : 				{
					"source" : [ "obj-35", 0 ],
					"destination" : [ "obj-24", 0 ],
					"hidden" : 1,
					"midpoints" : [  ]
				}

			}
, 			{
				"patchline" : 				{
					"source" : [ "obj-34", 0 ],
					"destination" : [ "obj-40", 0 ],
					"hidden" : 1,
					"midpoints" : [  ]
				}

			}
, 			{
				"patchline" : 				{
					"source" : [ "obj-40", 0 ],
					"destination" : [ "obj-24", 0 ],
					"hidden" : 1,
					"midpoints" : [  ]
				}

			}
, 			{
				"patchline" : 				{
					"source" : [ "obj-34", 1 ],
					"destination" : [ "obj-24", 0 ],
					"hidden" : 1,
					"midpoints" : [  ]
				}

			}
, 			{
				"patchline" : 				{
					"source" : [ "obj-33", 0 ],
					"destination" : [ "obj-20", 0 ],
					"hidden" : 1,
					"midpoints" : [ 754.5, 423.0, 191.5, 423.0 ]
				}

			}
, 			{
				"patchline" : 				{
					"source" : [ "obj-12", 0 ],
					"destination" : [ "obj-4", 1 ],
					"hidden" : 0,
					"midpoints" : [  ]
				}

			}
, 			{
				"patchline" : 				{
					"source" : [ "obj-13", 0 ],
					"destination" : [ "obj-4", 1 ],
					"hidden" : 0,
					"midpoints" : [ 440.5, 313.0, 240.5, 313.0 ]
				}

			}
, 			{
				"patchline" : 				{
					"source" : [ "obj-7", 0 ],
					"destination" : [ "obj-4", 0 ],
					"hidden" : 0,
					"midpoints" : [  ]
				}

			}
, 			{
				"patchline" : 				{
					"source" : [ "obj-7", 3 ],
					"destination" : [ "obj-33", 0 ],
					"hidden" : 1,
					"midpoints" : [  ]
				}

			}
, 			{
				"patchline" : 				{
					"source" : [ "obj-4", 0 ],
					"destination" : [ "obj-20", 0 ],
					"hidden" : 0,
					"midpoints" : [  ]
				}

			}
, 			{
				"patchline" : 				{
					"source" : [ "obj-4", 0 ],
					"destination" : [ "obj-18", 1 ],
					"hidden" : 0,
					"midpoints" : [ 191.5, 399.0, 494.0, 399.0, 494.0, 335.0, 462.5, 335.0 ]
				}

			}
, 			{
				"patchline" : 				{
					"source" : [ "obj-1", 0 ],
					"destination" : [ "obj-7", 0 ],
					"hidden" : 0,
					"midpoints" : [ 41.5, 192.0, 161.0, 192.0, 161.0, 54.0, 191.5, 54.0 ]
				}

			}
, 			{
				"patchline" : 				{
					"source" : [ "obj-79", 0 ],
					"destination" : [ "obj-1", 0 ],
					"hidden" : 0,
					"midpoints" : [  ]
				}

			}
 ]
	}

}
