{
	"patcher" : 	{
		"fileversion" : 1,
		"rect" : [ 0.0, 45.0, 1280.0, 663.0 ],
		"bglocked" : 0,
		"defrect" : [ 0.0, 45.0, 1280.0, 663.0 ],
		"openrect" : [ 0.0, 0.0, 0.0, 0.0 ],
		"openinpresentation" : 1,
		"default_fontsize" : 12.0,
		"default_fontface" : 0,
		"default_fontname" : "Arial",
		"gridonopen" : 0,
		"gridsize" : [ 15.0, 15.0 ],
		"gridsnaponopen" : 0,
		"toolbarvisible" : 1,
		"boxanimatetime" : 200,
		"imprint" : 0,
		"enablehscroll" : 1,
		"enablevscroll" : 1,
		"boxes" : [ 			{
				"box" : 				{
					"maxclass" : "newobj",
					"text" : "% 16",
					"numinlets" : 2,
					"fontsize" : 12.0,
					"numoutlets" : 1,
					"outlettype" : [ "int" ],
					"patching_rect" : [ 597.0, 506.0, 38.0, 20.0 ],
					"id" : "obj-2",
					"fontname" : "Arial"
				}

			}
, 			{
				"box" : 				{
					"maxclass" : "comment",
					"text" : "HEX:",
					"numinlets" : 1,
					"fontsize" : 8.0,
					"numoutlets" : 0,
					"patching_rect" : [ 191.0, 185.0, 38.0, 16.0 ],
					"id" : "obj-39",
					"fontname" : "Verdana"
				}

			}
, 			{
				"box" : 				{
					"maxclass" : "comment",
					"text" : "0xE",
					"numinlets" : 1,
					"fontsize" : 8.0,
					"numoutlets" : 0,
					"patching_rect" : [ 498.0, 185.0, 25.0, 16.0 ],
					"id" : "obj-38",
					"fontname" : "Verdana"
				}

			}
, 			{
				"box" : 				{
					"maxclass" : "comment",
					"text" : "0xD",
					"numinlets" : 1,
					"fontsize" : 8.0,
					"numoutlets" : 0,
					"patching_rect" : [ 452.0, 185.0, 25.0, 16.0 ],
					"id" : "obj-37",
					"fontname" : "Verdana"
				}

			}
, 			{
				"box" : 				{
					"maxclass" : "comment",
					"text" : "0xC",
					"numinlets" : 1,
					"fontsize" : 8.0,
					"numoutlets" : 0,
					"patching_rect" : [ 408.0, 185.0, 25.0, 16.0 ],
					"id" : "obj-36",
					"fontname" : "Verdana"
				}

			}
, 			{
				"box" : 				{
					"maxclass" : "comment",
					"text" : "0xB",
					"numinlets" : 1,
					"fontsize" : 8.0,
					"numoutlets" : 0,
					"patching_rect" : [ 364.0, 185.0, 25.0, 16.0 ],
					"id" : "obj-32",
					"fontname" : "Verdana"
				}

			}
, 			{
				"box" : 				{
					"maxclass" : "comment",
					"text" : "0xA",
					"numinlets" : 1,
					"fontsize" : 8.0,
					"numoutlets" : 0,
					"patching_rect" : [ 320.0, 185.0, 25.0, 16.0 ],
					"id" : "obj-31",
					"fontname" : "Verdana"
				}

			}
, 			{
				"box" : 				{
					"maxclass" : "comment",
					"text" : "0x9",
					"numinlets" : 1,
					"fontsize" : 8.0,
					"numoutlets" : 0,
					"patching_rect" : [ 276.0, 185.0, 25.0, 16.0 ],
					"id" : "obj-30",
					"fontname" : "Verdana"
				}

			}
, 			{
				"box" : 				{
					"maxclass" : "comment",
					"text" : "0x8",
					"numinlets" : 1,
					"fontsize" : 8.0,
					"numoutlets" : 0,
					"patching_rect" : [ 232.0, 185.0, 25.0, 16.0 ],
					"id" : "obj-22",
					"fontname" : "Verdana"
				}

			}
, 			{
				"box" : 				{
					"maxclass" : "number",
					"numinlets" : 1,
					"fontsize" : 96.0,
					"numoutlets" : 2,
					"presentation_rect" : [ 589.0, 96.0, 139.0, 117.0 ],
					"outlettype" : [ "int", "bang" ],
					"patching_rect" : [ 597.0, 551.0, 139.0, 117.0 ],
					"id" : "obj-63",
					"fontname" : "Arial",
					"presentation" : 1
				}

			}
, 			{
				"box" : 				{
					"maxclass" : "comment",
					"text" : "MIDI Channel",
					"numinlets" : 1,
					"fontsize" : 12.0,
					"numoutlets" : 0,
					"presentation_rect" : [ 615.0, 79.0, 86.0, 20.0 ],
					"bgcolor" : [ 0.694118, 0.694118, 0.694118, 1.0 ],
					"patching_rect" : [ 623.0, 534.0, 86.0, 20.0 ],
					"id" : "obj-75",
					"fontname" : "Arial",
					"presentation" : 1
				}

			}
, 			{
				"box" : 				{
					"maxclass" : "number",
					"numinlets" : 1,
					"fontsize" : 12.0,
					"numoutlets" : 2,
					"presentation_rect" : [ 431.0, 176.0, 126.0, 20.0 ],
					"outlettype" : [ "int", "bang" ],
					"patching_rect" : [ 438.0, 645.0, 126.0, 20.0 ],
					"id" : "obj-15",
					"fontname" : "Arial",
					"presentation" : 1,
					"format" : 1
				}

			}
, 			{
				"box" : 				{
					"maxclass" : "number",
					"numinlets" : 1,
					"fontsize" : 12.0,
					"numoutlets" : 2,
					"presentation_rect" : [ 299.0, 176.0, 126.0, 20.0 ],
					"outlettype" : [ "int", "bang" ],
					"patching_rect" : [ 306.0, 645.0, 126.0, 20.0 ],
					"id" : "obj-16",
					"fontname" : "Arial",
					"presentation" : 1,
					"format" : 1
				}

			}
, 			{
				"box" : 				{
					"maxclass" : "number",
					"numinlets" : 1,
					"fontsize" : 12.0,
					"numoutlets" : 2,
					"presentation_rect" : [ 166.0, 176.0, 126.0, 20.0 ],
					"outlettype" : [ "int", "bang" ],
					"patching_rect" : [ 173.0, 645.0, 126.0, 20.0 ],
					"id" : "obj-17",
					"fontname" : "Arial",
					"presentation" : 1,
					"format" : 1
				}

			}
, 			{
				"box" : 				{
					"maxclass" : "number",
					"numinlets" : 1,
					"fontsize" : 12.0,
					"numoutlets" : 2,
					"presentation_rect" : [ 431.0, 143.0, 126.0, 20.0 ],
					"outlettype" : [ "int", "bang" ],
					"patching_rect" : [ 438.0, 614.0, 126.0, 20.0 ],
					"id" : "obj-5",
					"fontname" : "Arial",
					"presentation" : 1,
					"format" : 3
				}

			}
, 			{
				"box" : 				{
					"maxclass" : "number",
					"numinlets" : 1,
					"fontsize" : 12.0,
					"numoutlets" : 2,
					"presentation_rect" : [ 299.0, 143.0, 126.0, 20.0 ],
					"outlettype" : [ "int", "bang" ],
					"patching_rect" : [ 306.0, 614.0, 126.0, 20.0 ],
					"id" : "obj-10",
					"fontname" : "Arial",
					"presentation" : 1,
					"format" : 3
				}

			}
, 			{
				"box" : 				{
					"maxclass" : "number",
					"numinlets" : 1,
					"fontsize" : 12.0,
					"numoutlets" : 2,
					"presentation_rect" : [ 166.0, 143.0, 126.0, 20.0 ],
					"outlettype" : [ "int", "bang" ],
					"patching_rect" : [ 173.0, 614.0, 126.0, 20.0 ],
					"id" : "obj-14",
					"fontname" : "Arial",
					"presentation" : 1,
					"format" : 3
				}

			}
, 			{
				"box" : 				{
					"maxclass" : "newobj",
					"text" : "midiin",
					"numinlets" : 1,
					"fontsize" : 12.0,
					"numoutlets" : 1,
					"presentation_rect" : [ 35.0, 41.0, 64.0, 20.0 ],
					"outlettype" : [ "int" ],
					"patching_rect" : [ 23.0, 75.0, 42.0, 20.0 ],
					"id" : "obj-79",
					"fontname" : "Arial",
					"presentation" : 1
				}

			}
, 			{
				"box" : 				{
					"maxclass" : "comment",
					"text" : "Divide by sixteen: if the result is >= 8  it's a status byte, otherwise it's a data byte. It should always be less than 16. A value of 15 would mean a \"system\" message.",
					"linecount" : 3,
					"numinlets" : 1,
					"fontsize" : 12.0,
					"numoutlets" : 0,
					"patching_rect" : [ 259.0, 105.0, 330.0, 48.0 ],
					"id" : "obj-46",
					"fontname" : "Arial"
				}

			}
, 			{
				"box" : 				{
					"maxclass" : "comment",
					"text" : "hex",
					"numinlets" : 1,
					"fontsize" : 12.0,
					"numoutlets" : 0,
					"presentation_rect" : [ 42.0, 176.0, 541.0, 20.0 ],
					"bgcolor" : [ 0.501961, 0.717647, 0.764706, 1.0 ],
					"patching_rect" : [ 43.0, 645.0, 541.0, 20.0 ],
					"id" : "obj-43",
					"fontname" : "Arial",
					"presentation" : 1
				}

			}
, 			{
				"box" : 				{
					"maxclass" : "message",
					"text" : "hidden 1",
					"numinlets" : 2,
					"fontsize" : 12.0,
					"numoutlets" : 1,
					"hidden" : 1,
					"outlettype" : [ "" ],
					"patching_rect" : [ 386.0, 499.0, 57.0, 18.0 ],
					"id" : "obj-40",
					"fontname" : "Arial"
				}

			}
, 			{
				"box" : 				{
					"maxclass" : "message",
					"text" : "hidden 0",
					"numinlets" : 2,
					"fontsize" : 12.0,
					"numoutlets" : 1,
					"hidden" : 1,
					"outlettype" : [ "" ],
					"patching_rect" : [ 461.0, 499.0, 57.0, 18.0 ],
					"id" : "obj-35",
					"fontname" : "Arial"
				}

			}
, 			{
				"box" : 				{
					"maxclass" : "newobj",
					"text" : "select -1",
					"numinlets" : 2,
					"fontsize" : 12.0,
					"numoutlets" : 2,
					"hidden" : 1,
					"outlettype" : [ "bang", "" ],
					"patching_rect" : [ 386.0, 464.0, 71.0, 20.0 ],
					"id" : "obj-34",
					"fontname" : "Arial"
				}

			}
, 			{
				"box" : 				{
					"maxclass" : "message",
					"text" : "-1 -1 -1",
					"numinlets" : 2,
					"fontsize" : 12.0,
					"numoutlets" : 1,
					"hidden" : 1,
					"outlettype" : [ "" ],
					"patching_rect" : [ 736.0, 341.0, 49.0, 18.0 ],
					"id" : "obj-33",
					"fontname" : "Arial"
				}

			}
, 			{
				"box" : 				{
					"maxclass" : "comment",
					"text" : "grouped MIDI message bytes ",
					"numinlets" : 1,
					"fontsize" : 12.0,
					"numoutlets" : 0,
					"patching_rect" : [ 270.0, 352.0, 200.0, 20.0 ],
					"id" : "obj-29",
					"fontname" : "Arial"
				}

			}
, 			{
				"box" : 				{
					"maxclass" : "comment",
					"text" : "MIDI bytes in",
					"numinlets" : 1,
					"fontsize" : 12.0,
					"numoutlets" : 0,
					"presentation_rect" : [ 170.0, 41.0, 90.0, 20.0 ],
					"patching_rect" : [ 37.0, 116.0, 90.0, 20.0 ],
					"id" : "obj-28",
					"fontname" : "Arial",
					"presentation" : 1
				}

			}
, 			{
				"box" : 				{
					"maxclass" : "comment",
					"text" : "2-byte MIDI messages ",
					"numinlets" : 1,
					"fontsize" : 12.0,
					"numoutlets" : 0,
					"patching_rect" : [ 433.0, 273.0, 147.0, 20.0 ],
					"id" : "obj-27",
					"fontname" : "Arial"
				}

			}
, 			{
				"box" : 				{
					"maxclass" : "comment",
					"text" : "3-byte MIDI messages ",
					"numinlets" : 1,
					"fontsize" : 12.0,
					"numoutlets" : 0,
					"patching_rect" : [ 233.0, 273.0, 147.0, 20.0 ],
					"id" : "obj-26",
					"fontname" : "Arial"
				}

			}
, 			{
				"box" : 				{
					"maxclass" : "number",
					"numinlets" : 1,
					"fontsize" : 12.0,
					"numoutlets" : 2,
					"presentation_rect" : [ 431.0, 110.0, 126.0, 20.0 ],
					"outlettype" : [ "int", "bang" ],
					"patching_rect" : [ 438.0, 550.0, 126.0, 20.0 ],
					"id" : "obj-24",
					"fontname" : "Arial",
					"presentation" : 1
				}

			}
, 			{
				"box" : 				{
					"maxclass" : "number",
					"numinlets" : 1,
					"fontsize" : 12.0,
					"numoutlets" : 2,
					"presentation_rect" : [ 299.0, 110.0, 126.0, 20.0 ],
					"outlettype" : [ "int", "bang" ],
					"patching_rect" : [ 306.0, 550.0, 126.0, 20.0 ],
					"id" : "obj-23",
					"fontname" : "Arial",
					"presentation" : 1
				}

			}
, 			{
				"box" : 				{
					"maxclass" : "number",
					"numinlets" : 1,
					"fontsize" : 12.0,
					"numoutlets" : 2,
					"presentation_rect" : [ 166.0, 110.0, 126.0, 20.0 ],
					"outlettype" : [ "int", "bang" ],
					"patching_rect" : [ 173.0, 550.0, 126.0, 20.0 ],
					"id" : "obj-21",
					"fontname" : "Arial",
					"presentation" : 1
				}

			}
, 			{
				"box" : 				{
					"maxclass" : "newobj",
					"text" : "unpack i i i",
					"numinlets" : 1,
					"fontsize" : 12.0,
					"numoutlets" : 3,
					"outlettype" : [ "int", "int", "int" ],
					"patching_rect" : [ 173.0, 431.0, 284.0, 20.0 ],
					"id" : "obj-20",
					"fontname" : "Arial"
				}

			}
, 			{
				"box" : 				{
					"maxclass" : "message",
					"text" : "146 60 0",
					"numinlets" : 2,
					"fontsize" : 12.0,
					"numoutlets" : 1,
					"outlettype" : [ "" ],
					"patching_rect" : [ 268.0, 333.0, 195.0, 18.0 ],
					"id" : "obj-18",
					"fontname" : "Arial"
				}

			}
, 			{
				"box" : 				{
					"maxclass" : "message",
					"text" : "2",
					"numinlets" : 2,
					"fontsize" : 12.0,
					"numoutlets" : 1,
					"outlettype" : [ "" ],
					"patching_rect" : [ 422.0, 254.0, 84.5, 18.0 ],
					"id" : "obj-13",
					"fontname" : "Arial"
				}

			}
, 			{
				"box" : 				{
					"maxclass" : "message",
					"text" : "3",
					"numinlets" : 2,
					"fontsize" : 12.0,
					"numoutlets" : 1,
					"outlettype" : [ "" ],
					"patching_rect" : [ 222.0, 254.0, 90.5, 18.0 ],
					"id" : "obj-12",
					"fontname" : "Arial"
				}

			}
, 			{
				"box" : 				{
					"maxclass" : "newobj",
					"text" : "select 8 9 10 11 12 13 14",
					"numinlets" : 1,
					"fontsize" : 12.0,
					"numoutlets" : 8,
					"outlettype" : [ "bang", "bang", "bang", "bang", "bang", "bang", "bang", "" ],
					"patching_rect" : [ 222.0, 165.0, 333.0, 20.0 ],
					"id" : "obj-9",
					"fontname" : "Arial"
				}

			}
, 			{
				"box" : 				{
					"maxclass" : "newobj",
					"text" : "t i i i b",
					"numinlets" : 1,
					"fontsize" : 12.0,
					"numoutlets" : 4,
					"outlettype" : [ "int", "int", "int", "bang" ],
					"patching_rect" : [ 173.0, 52.0, 581.5, 20.0 ],
					"id" : "obj-7",
					"fontname" : "Arial"
				}

			}
, 			{
				"box" : 				{
					"maxclass" : "newobj",
					"text" : "zl group",
					"numinlets" : 2,
					"fontsize" : 12.0,
					"numoutlets" : 2,
					"outlettype" : [ "", "" ],
					"patching_rect" : [ 173.0, 345.0, 68.0, 20.0 ],
					"id" : "obj-4",
					"fontname" : "Arial"
				}

			}
, 			{
				"box" : 				{
					"maxclass" : "newobj",
					"text" : "/ 16",
					"numinlets" : 2,
					"fontsize" : 12.0,
					"numoutlets" : 1,
					"outlettype" : [ "int" ],
					"patching_rect" : [ 222.0, 115.0, 32.5, 20.0 ],
					"id" : "obj-3",
					"fontname" : "Arial"
				}

			}
, 			{
				"box" : 				{
					"maxclass" : "number",
					"numinlets" : 1,
					"fontsize" : 12.0,
					"numoutlets" : 2,
					"presentation_rect" : [ 100.0, 41.0, 69.0, 20.0 ],
					"outlettype" : [ "int", "bang" ],
					"patching_rect" : [ 23.0, 138.0, 69.0, 20.0 ],
					"id" : "obj-1",
					"fontname" : "Arial",
					"presentation" : 1
				}

			}
, 			{
				"box" : 				{
					"maxclass" : "comment",
					"text" : "decimal",
					"numinlets" : 1,
					"fontsize" : 12.0,
					"numoutlets" : 0,
					"presentation_rect" : [ 42.0, 110.0, 539.0, 20.0 ],
					"bgcolor" : [ 0.945098, 0.913725, 0.407843, 1.0 ],
					"patching_rect" : [ 43.0, 550.0, 539.0, 20.0 ],
					"id" : "obj-41",
					"fontname" : "Arial",
					"presentation" : 1
				}

			}
, 			{
				"box" : 				{
					"maxclass" : "comment",
					"text" : "binary",
					"numinlets" : 1,
					"fontsize" : 12.0,
					"numoutlets" : 0,
					"presentation_rect" : [ 42.0, 143.0, 541.0, 20.0 ],
					"bgcolor" : [ 0.545098, 0.85098, 0.592157, 1.0 ],
					"patching_rect" : [ 43.0, 614.0, 541.0, 20.0 ],
					"id" : "obj-42",
					"fontname" : "Arial",
					"presentation" : 1
				}

			}
, 			{
				"box" : 				{
					"maxclass" : "comment",
					"text" : "status byte",
					"numinlets" : 1,
					"fontsize" : 12.0,
					"numoutlets" : 0,
					"presentation_rect" : [ 195.0, 95.0, 72.0, 20.0 ],
					"bgcolor" : [ 0.694118, 0.694118, 0.694118, 1.0 ],
					"patching_rect" : [ 206.0, 532.0, 72.0, 20.0 ],
					"id" : "obj-6",
					"fontname" : "Arial",
					"presentation" : 1
				}

			}
, 			{
				"box" : 				{
					"maxclass" : "comment",
					"text" : "data byte 2",
					"numinlets" : 1,
					"fontsize" : 12.0,
					"numoutlets" : 0,
					"presentation_rect" : [ 457.0, 94.0, 75.0, 20.0 ],
					"bgcolor" : [ 0.694118, 0.694118, 0.694118, 1.0 ],
					"patching_rect" : [ 468.0, 531.0, 75.0, 20.0 ],
					"id" : "obj-11",
					"fontname" : "Arial",
					"presentation" : 1
				}

			}
, 			{
				"box" : 				{
					"maxclass" : "comment",
					"text" : "data byte 1",
					"numinlets" : 1,
					"fontsize" : 12.0,
					"numoutlets" : 0,
					"presentation_rect" : [ 324.0, 95.0, 72.0, 20.0 ],
					"bgcolor" : [ 0.694118, 0.694118, 0.694118, 1.0 ],
					"patching_rect" : [ 335.0, 532.0, 72.0, 20.0 ],
					"id" : "obj-8",
					"fontname" : "Arial",
					"presentation" : 1
				}

			}
 ],
		"lines" : [ 			{
				"patchline" : 				{
					"source" : [ "obj-2", 0 ],
					"destination" : [ "obj-63", 0 ],
					"hidden" : 0,
					"midpoints" : [  ]
				}

			}
, 			{
				"patchline" : 				{
					"source" : [ "obj-17", 0 ],
					"destination" : [ "obj-2", 0 ],
					"hidden" : 0,
					"midpoints" : [ 182.5, 674.0, 759.0, 674.0, 759.0, 495.0, 606.5, 495.0 ]
				}

			}
, 			{
				"patchline" : 				{
					"source" : [ "obj-79", 0 ],
					"destination" : [ "obj-1", 0 ],
					"hidden" : 0,
					"midpoints" : [  ]
				}

			}
, 			{
				"patchline" : 				{
					"source" : [ "obj-1", 0 ],
					"destination" : [ "obj-7", 0 ],
					"hidden" : 0,
					"midpoints" : [ 32.5, 176.0, 152.0, 176.0, 152.0, 38.0, 182.5, 38.0 ]
				}

			}
, 			{
				"patchline" : 				{
					"source" : [ "obj-4", 0 ],
					"destination" : [ "obj-18", 1 ],
					"hidden" : 0,
					"midpoints" : [ 182.5, 383.0, 485.0, 383.0, 485.0, 319.0, 453.5, 319.0 ]
				}

			}
, 			{
				"patchline" : 				{
					"source" : [ "obj-4", 0 ],
					"destination" : [ "obj-20", 0 ],
					"hidden" : 0,
					"midpoints" : [  ]
				}

			}
, 			{
				"patchline" : 				{
					"source" : [ "obj-7", 3 ],
					"destination" : [ "obj-33", 0 ],
					"hidden" : 1,
					"midpoints" : [  ]
				}

			}
, 			{
				"patchline" : 				{
					"source" : [ "obj-7", 0 ],
					"destination" : [ "obj-4", 0 ],
					"hidden" : 0,
					"midpoints" : [  ]
				}

			}
, 			{
				"patchline" : 				{
					"source" : [ "obj-13", 0 ],
					"destination" : [ "obj-4", 1 ],
					"hidden" : 0,
					"midpoints" : [ 431.5, 297.0, 231.5, 297.0 ]
				}

			}
, 			{
				"patchline" : 				{
					"source" : [ "obj-12", 0 ],
					"destination" : [ "obj-4", 1 ],
					"hidden" : 0,
					"midpoints" : [  ]
				}

			}
, 			{
				"patchline" : 				{
					"source" : [ "obj-33", 0 ],
					"destination" : [ "obj-20", 0 ],
					"hidden" : 1,
					"midpoints" : [ 745.5, 407.0, 182.5, 407.0 ]
				}

			}
, 			{
				"patchline" : 				{
					"source" : [ "obj-34", 1 ],
					"destination" : [ "obj-24", 0 ],
					"hidden" : 1,
					"midpoints" : [  ]
				}

			}
, 			{
				"patchline" : 				{
					"source" : [ "obj-40", 0 ],
					"destination" : [ "obj-24", 0 ],
					"hidden" : 1,
					"midpoints" : [  ]
				}

			}
, 			{
				"patchline" : 				{
					"source" : [ "obj-34", 0 ],
					"destination" : [ "obj-40", 0 ],
					"hidden" : 1,
					"midpoints" : [  ]
				}

			}
, 			{
				"patchline" : 				{
					"source" : [ "obj-35", 0 ],
					"destination" : [ "obj-24", 0 ],
					"hidden" : 1,
					"midpoints" : [  ]
				}

			}
, 			{
				"patchline" : 				{
					"source" : [ "obj-34", 1 ],
					"destination" : [ "obj-35", 0 ],
					"hidden" : 1,
					"midpoints" : [  ]
				}

			}
, 			{
				"patchline" : 				{
					"source" : [ "obj-20", 2 ],
					"destination" : [ "obj-34", 0 ],
					"hidden" : 1,
					"midpoints" : [ 447.5, 458.0, 395.5, 458.0 ]
				}

			}
, 			{
				"patchline" : 				{
					"source" : [ "obj-20", 1 ],
					"destination" : [ "obj-23", 0 ],
					"hidden" : 1,
					"midpoints" : [ 315.0, 453.0, 315.5, 453.0 ]
				}

			}
, 			{
				"patchline" : 				{
					"source" : [ "obj-20", 0 ],
					"destination" : [ "obj-21", 0 ],
					"hidden" : 1,
					"midpoints" : [ 182.5, 453.0, 182.5, 453.0 ]
				}

			}
, 			{
				"patchline" : 				{
					"source" : [ "obj-9", 5 ],
					"destination" : [ "obj-13", 0 ],
					"hidden" : 0,
					"midpoints" : [ 455.785706, 185.0, 447.0, 185.0, 447.0, 239.0, 431.5, 239.0 ]
				}

			}
, 			{
				"patchline" : 				{
					"source" : [ "obj-9", 4 ],
					"destination" : [ "obj-13", 0 ],
					"hidden" : 0,
					"midpoints" : [ 410.928558, 185.0, 405.0, 185.0, 405.0, 239.0, 431.5, 239.0 ]
				}

			}
, 			{
				"patchline" : 				{
					"source" : [ "obj-9", 0 ],
					"destination" : [ "obj-12", 0 ],
					"hidden" : 0,
					"midpoints" : [  ]
				}

			}
, 			{
				"patchline" : 				{
					"source" : [ "obj-9", 1 ],
					"destination" : [ "obj-12", 0 ],
					"hidden" : 0,
					"midpoints" : [  ]
				}

			}
, 			{
				"patchline" : 				{
					"source" : [ "obj-9", 2 ],
					"destination" : [ "obj-12", 0 ],
					"hidden" : 0,
					"midpoints" : [  ]
				}

			}
, 			{
				"patchline" : 				{
					"source" : [ "obj-9", 3 ],
					"destination" : [ "obj-12", 0 ],
					"hidden" : 0,
					"midpoints" : [  ]
				}

			}
, 			{
				"patchline" : 				{
					"source" : [ "obj-35", 0 ],
					"destination" : [ "obj-11", 0 ],
					"hidden" : 1,
					"midpoints" : [  ]
				}

			}
, 			{
				"patchline" : 				{
					"source" : [ "obj-40", 0 ],
					"destination" : [ "obj-11", 0 ],
					"hidden" : 1,
					"midpoints" : [  ]
				}

			}
, 			{
				"patchline" : 				{
					"source" : [ "obj-7", 1 ],
					"destination" : [ "obj-3", 0 ],
					"hidden" : 0,
					"midpoints" : [ 370.0, 88.0, 231.5, 88.0 ]
				}

			}
, 			{
				"patchline" : 				{
					"source" : [ "obj-3", 0 ],
					"destination" : [ "obj-9", 0 ],
					"hidden" : 0,
					"midpoints" : [  ]
				}

			}
, 			{
				"patchline" : 				{
					"source" : [ "obj-21", 0 ],
					"destination" : [ "obj-14", 0 ],
					"hidden" : 0,
					"midpoints" : [  ]
				}

			}
, 			{
				"patchline" : 				{
					"source" : [ "obj-14", 0 ],
					"destination" : [ "obj-17", 0 ],
					"hidden" : 0,
					"midpoints" : [  ]
				}

			}
, 			{
				"patchline" : 				{
					"source" : [ "obj-23", 0 ],
					"destination" : [ "obj-10", 0 ],
					"hidden" : 0,
					"midpoints" : [  ]
				}

			}
, 			{
				"patchline" : 				{
					"source" : [ "obj-10", 0 ],
					"destination" : [ "obj-16", 0 ],
					"hidden" : 0,
					"midpoints" : [  ]
				}

			}
, 			{
				"patchline" : 				{
					"source" : [ "obj-24", 0 ],
					"destination" : [ "obj-5", 0 ],
					"hidden" : 0,
					"midpoints" : [  ]
				}

			}
, 			{
				"patchline" : 				{
					"source" : [ "obj-5", 0 ],
					"destination" : [ "obj-15", 0 ],
					"hidden" : 0,
					"midpoints" : [  ]
				}

			}
, 			{
				"patchline" : 				{
					"source" : [ "obj-40", 0 ],
					"destination" : [ "obj-5", 0 ],
					"hidden" : 1,
					"midpoints" : [  ]
				}

			}
, 			{
				"patchline" : 				{
					"source" : [ "obj-35", 0 ],
					"destination" : [ "obj-5", 0 ],
					"hidden" : 1,
					"midpoints" : [  ]
				}

			}
, 			{
				"patchline" : 				{
					"source" : [ "obj-40", 0 ],
					"destination" : [ "obj-15", 0 ],
					"hidden" : 1,
					"midpoints" : [  ]
				}

			}
, 			{
				"patchline" : 				{
					"source" : [ "obj-35", 0 ],
					"destination" : [ "obj-15", 0 ],
					"hidden" : 1,
					"midpoints" : [  ]
				}

			}
, 			{
				"patchline" : 				{
					"source" : [ "obj-9", 6 ],
					"destination" : [ "obj-12", 0 ],
					"hidden" : 0,
					"midpoints" : [ 500.642853, 186.0, 489.0, 186.0, 489.0, 206.0 ]
				}

			}
 ]
	}

}
