{
	"patcher" : 	{
		"fileversion" : 1,
		"rect" : [ 616.0, 44.0, 818.0, 685.0 ],
		"bglocked" : 0,
		"defrect" : [ 616.0, 44.0, 818.0, 685.0 ],
		"openrect" : [ 0.0, 0.0, 0.0, 0.0 ],
		"openinpresentation" : 0,
		"default_fontsize" : 12.0,
		"default_fontface" : 0,
		"default_fontname" : "Arial",
		"gridonopen" : 0,
		"gridsize" : [ 15.0, 15.0 ],
		"gridsnaponopen" : 0,
		"toolbarvisible" : 1,
		"boxanimatetime" : 200,
		"imprint" : 0,
		"enablehscroll" : 1,
		"enablevscroll" : 1,
		"boxes" : [ 			{
				"box" : 				{
					"maxclass" : "comment",
					"text" : "see: http://www.jososoft.dk/yamaha/articles/midi_6.htm",
					"numinlets" : 1,
					"patching_rect" : [ 533.0, 50.0, 267.0, 18.0 ],
					"id" : "obj-16",
					"fontname" : "Arial",
					"numoutlets" : 0,
					"fontsize" : 10.0
				}

			}
, 			{
				"box" : 				{
					"maxclass" : "comment",
					"text" : "change program",
					"numinlets" : 1,
					"patching_rect" : [ 482.0, 26.0, 150.0, 20.0 ],
					"id" : "obj-12",
					"fontname" : "Arial",
					"numoutlets" : 0,
					"fontsize" : 12.0
				}

			}
, 			{
				"box" : 				{
					"maxclass" : "number",
					"numinlets" : 1,
					"patching_rect" : [ 481.0, 48.0, 50.0, 20.0 ],
					"id" : "obj-10",
					"fontname" : "Arial",
					"numoutlets" : 2,
					"outlettype" : [ "int", "bang" ],
					"fontsize" : 12.0
				}

			}
, 			{
				"box" : 				{
					"maxclass" : "newobj",
					"text" : "pgmout 1",
					"numinlets" : 2,
					"patching_rect" : [ 481.0, 82.0, 61.0, 20.0 ],
					"id" : "obj-6",
					"fontname" : "Arial",
					"numoutlets" : 0,
					"fontsize" : 12.0
				}

			}
, 			{
				"box" : 				{
					"maxclass" : "comment",
					"text" : "itable: named 'pitchmap'",
					"numinlets" : 1,
					"patching_rect" : [ 588.0, 100.0, 150.0, 20.0 ],
					"id" : "obj-7",
					"fontname" : "Arial",
					"numoutlets" : 0,
					"fontsize" : 12.0
				}

			}
, 			{
				"box" : 				{
					"maxclass" : "itable",
					"hint" : "x 2 y 9",
					"range" : 12,
					"numinlets" : 2,
					"patching_rect" : [ 594.0, 119.0, 160.0, 145.0 ],
					"id" : "obj-5",
					"numoutlets" : 2,
					"name" : "pitchmap",
					"outlettype" : [ "int", "bang" ],
					"size" : 12,
					"table_data" : [ 0, 0, 0, 2, 2, 4, 5, 5, 7, 7, 9, 9, 11 ]
				}

			}
, 			{
				"box" : 				{
					"maxclass" : "newobj",
					"text" : "table pitchmap",
					"numinlets" : 2,
					"patching_rect" : [ 155.0, 424.0, 89.0, 20.0 ],
					"id" : "obj-25",
					"fontname" : "Arial",
					"numoutlets" : 2,
					"outlettype" : [ "int", "bang" ],
					"fontsize" : 12.0,
					"size" : 12,
					"table_data" : [ 0, 0, 0, 2, 2, 4, 5, 5, 7, 7, 9, 9, 11 ],
					"showeditor" : 0,
					"editor_rect" : [ 100.0, 100.0, 300.0, 300.0 ],
					"saved_object_attributes" : 					{
						"range" : 12,
						"signed" : 0,
						"embed" : 1,
						"notename" : 0,
						"name" : "pitchmap",
						"showeditor" : 0,
						"size" : 12
					}

				}

			}
, 			{
				"box" : 				{
					"maxclass" : "newobj",
					"text" : "drunk 24 5",
					"numinlets" : 3,
					"patching_rect" : [ 94.0, 175.0, 67.0, 20.0 ],
					"id" : "obj-2",
					"fontname" : "Arial",
					"numoutlets" : 1,
					"outlettype" : [ "int" ],
					"fontsize" : 12.0
				}

			}
, 			{
				"box" : 				{
					"maxclass" : "newobj",
					"text" : "+ 48",
					"numinlets" : 2,
					"patching_rect" : [ 94.0, 232.0, 34.0, 20.0 ],
					"id" : "obj-31",
					"fontname" : "Arial",
					"numoutlets" : 1,
					"outlettype" : [ "int" ],
					"fontsize" : 12.0
				}

			}
, 			{
				"box" : 				{
					"maxclass" : "newobj",
					"text" : "+",
					"numinlets" : 2,
					"patching_rect" : [ 94.0, 475.0, 79.5, 20.0 ],
					"id" : "obj-21",
					"fontname" : "Arial",
					"numoutlets" : 1,
					"outlettype" : [ "int" ],
					"fontsize" : 12.0
				}

			}
, 			{
				"box" : 				{
					"maxclass" : "newobj",
					"text" : "% 12",
					"numinlets" : 2,
					"patching_rect" : [ 155.0, 362.0, 38.0, 20.0 ],
					"id" : "obj-20",
					"fontname" : "Arial",
					"numoutlets" : 1,
					"outlettype" : [ "int" ],
					"fontsize" : 12.0
				}

			}
, 			{
				"box" : 				{
					"maxclass" : "newobj",
					"text" : "* 12",
					"numinlets" : 2,
					"patching_rect" : [ 94.0, 424.0, 32.5, 20.0 ],
					"id" : "obj-19",
					"fontname" : "Arial",
					"numoutlets" : 1,
					"outlettype" : [ "int" ],
					"fontsize" : 12.0
				}

			}
, 			{
				"box" : 				{
					"maxclass" : "newobj",
					"text" : "/ 12",
					"numinlets" : 2,
					"patching_rect" : [ 94.0, 362.0, 32.5, 20.0 ],
					"id" : "obj-18",
					"fontname" : "Arial",
					"numoutlets" : 1,
					"outlettype" : [ "int" ],
					"fontsize" : 12.0
				}

			}
, 			{
				"box" : 				{
					"maxclass" : "number",
					"numinlets" : 1,
					"patching_rect" : [ 94.0, 291.0, 50.0, 20.0 ],
					"id" : "obj-17",
					"fontname" : "Arial",
					"numoutlets" : 2,
					"outlettype" : [ "int", "bang" ],
					"fontsize" : 12.0
				}

			}
, 			{
				"box" : 				{
					"maxclass" : "button",
					"numinlets" : 1,
					"patching_rect" : [ 94.0, 138.0, 20.0, 20.0 ],
					"id" : "obj-4",
					"numoutlets" : 1,
					"outlettype" : [ "bang" ]
				}

			}
, 			{
				"box" : 				{
					"maxclass" : "newobj",
					"text" : "noteout 1",
					"numinlets" : 3,
					"patching_rect" : [ 94.0, 548.0, 201.0, 20.0 ],
					"id" : "obj-30",
					"fontname" : "Arial",
					"numoutlets" : 0,
					"fontsize" : 12.0
				}

			}
, 			{
				"box" : 				{
					"maxclass" : "newobj",
					"text" : "makenote 100 125",
					"numinlets" : 3,
					"patching_rect" : [ 94.0, 513.0, 110.0, 20.0 ],
					"id" : "obj-29",
					"fontname" : "Arial",
					"numoutlets" : 2,
					"outlettype" : [ "float", "float" ],
					"fontsize" : 12.0
				}

			}
, 			{
				"box" : 				{
					"maxclass" : "toggle",
					"numinlets" : 1,
					"patching_rect" : [ 94.0, 49.0, 20.0, 20.0 ],
					"id" : "obj-3",
					"numoutlets" : 1,
					"outlettype" : [ "int" ]
				}

			}
, 			{
				"box" : 				{
					"maxclass" : "newobj",
					"text" : "metro 125",
					"numinlets" : 2,
					"patching_rect" : [ 94.0, 98.0, 65.0, 20.0 ],
					"id" : "obj-1",
					"fontname" : "Arial",
					"numoutlets" : 1,
					"outlettype" : [ "bang" ],
					"fontsize" : 12.0
				}

			}
 ],
		"lines" : [ 			{
				"patchline" : 				{
					"source" : [ "obj-21", 0 ],
					"destination" : [ "obj-29", 0 ],
					"hidden" : 0,
					"midpoints" : [  ]
				}

			}
, 			{
				"patchline" : 				{
					"source" : [ "obj-19", 0 ],
					"destination" : [ "obj-21", 0 ],
					"hidden" : 0,
					"midpoints" : [  ]
				}

			}
, 			{
				"patchline" : 				{
					"source" : [ "obj-18", 0 ],
					"destination" : [ "obj-19", 0 ],
					"hidden" : 0,
					"midpoints" : [  ]
				}

			}
, 			{
				"patchline" : 				{
					"source" : [ "obj-17", 0 ],
					"destination" : [ "obj-20", 0 ],
					"hidden" : 0,
					"midpoints" : [  ]
				}

			}
, 			{
				"patchline" : 				{
					"source" : [ "obj-17", 0 ],
					"destination" : [ "obj-18", 0 ],
					"hidden" : 0,
					"midpoints" : [  ]
				}

			}
, 			{
				"patchline" : 				{
					"source" : [ "obj-29", 0 ],
					"destination" : [ "obj-30", 0 ],
					"hidden" : 0,
					"midpoints" : [  ]
				}

			}
, 			{
				"patchline" : 				{
					"source" : [ "obj-29", 1 ],
					"destination" : [ "obj-30", 1 ],
					"hidden" : 0,
					"midpoints" : [  ]
				}

			}
, 			{
				"patchline" : 				{
					"source" : [ "obj-1", 0 ],
					"destination" : [ "obj-4", 0 ],
					"hidden" : 0,
					"midpoints" : [  ]
				}

			}
, 			{
				"patchline" : 				{
					"source" : [ "obj-3", 0 ],
					"destination" : [ "obj-1", 0 ],
					"hidden" : 0,
					"midpoints" : [  ]
				}

			}
, 			{
				"patchline" : 				{
					"source" : [ "obj-4", 0 ],
					"destination" : [ "obj-2", 0 ],
					"hidden" : 0,
					"midpoints" : [  ]
				}

			}
, 			{
				"patchline" : 				{
					"source" : [ "obj-25", 0 ],
					"destination" : [ "obj-21", 1 ],
					"hidden" : 0,
					"midpoints" : [  ]
				}

			}
, 			{
				"patchline" : 				{
					"source" : [ "obj-20", 0 ],
					"destination" : [ "obj-25", 0 ],
					"hidden" : 0,
					"midpoints" : [  ]
				}

			}
, 			{
				"patchline" : 				{
					"source" : [ "obj-31", 0 ],
					"destination" : [ "obj-17", 0 ],
					"hidden" : 0,
					"midpoints" : [  ]
				}

			}
, 			{
				"patchline" : 				{
					"source" : [ "obj-2", 0 ],
					"destination" : [ "obj-31", 0 ],
					"hidden" : 0,
					"midpoints" : [  ]
				}

			}
, 			{
				"patchline" : 				{
					"source" : [ "obj-10", 0 ],
					"destination" : [ "obj-6", 0 ],
					"hidden" : 0,
					"midpoints" : [  ]
				}

			}
 ]
	}

}
