{
	"patcher" : 	{
		"fileversion" : 1,
		"rect" : [ 187.0, 94.0, 646.0, 637.0 ],
		"bglocked" : 0,
		"defrect" : [ 187.0, 94.0, 646.0, 637.0 ],
		"openrect" : [ 0.0, 0.0, 0.0, 0.0 ],
		"openinpresentation" : 0,
		"default_fontsize" : 12.0,
		"default_fontface" : 0,
		"default_fontname" : "Arial",
		"gridonopen" : 0,
		"gridsize" : [ 15.0, 15.0 ],
		"gridsnaponopen" : 0,
		"toolbarvisible" : 1,
		"boxanimatetime" : 200,
		"imprint" : 0,
		"enablehscroll" : 1,
		"enablevscroll" : 1,
		"boxes" : [ 			{
				"box" : 				{
					"maxclass" : "newobj",
					"text" : "select 0",
					"outlettype" : [ "bang", "" ],
					"patching_rect" : [ 209.0, 156.0, 52.0, 20.0 ],
					"id" : "obj-13",
					"fontname" : "Arial",
					"numinlets" : 2,
					"fontsize" : 12.0,
					"numoutlets" : 2
				}

			}
, 			{
				"box" : 				{
					"maxclass" : "newobj",
					"text" : "counter 0 1 4",
					"outlettype" : [ "int", "", "", "int" ],
					"patching_rect" : [ 209.0, 179.0, 81.0, 20.0 ],
					"id" : "obj-12",
					"fontname" : "Arial",
					"numinlets" : 5,
					"fontsize" : 12.0,
					"numoutlets" : 4
				}

			}
, 			{
				"box" : 				{
					"maxclass" : "preset",
					"outlettype" : [ "preset", "int", "preset", "int" ],
					"patching_rect" : [ 209.0, 203.0, 100.0, 40.0 ],
					"id" : "obj-10",
					"numinlets" : 1,
					"numoutlets" : 4,
					"preset_data" : [ 						{
							"number" : 1,
							"data" : [ 196, "obj-1", "matrixctrl", "list", 0, 0, 1, 0, 1, 0, 0, 2, 0, 0, 3, 0, 1, 0, 0, 1, 1, 0, 1, 2, 0, 1, 3, 0, 2, 0, 0, 2, 1, 0, 2, 2, 0, 2, 3, 0, 3, 0, 0, 3, 1, 0, 3, 2, 0, 3, 3, 0, 4, 0, 0, 4, 1, 0, 4, 2, 0, 4, 3, 0, 5, 0, 0, 5, 1, 0, 5, 2, 0, 5, 3, 0, 6, 0, 1, 6, 1, 0, 6, 2, 0, 6, 3, 0, 7, 0, 0, 7, 1, 0, 7, 2, 0, 7, 3, 0, 8, 0, 0, 8, 1, 0, 8, 2, 0, 8, 3, 0, 9, 0, 0, 9, 1, 0, 9, 2, 0, 9, 3, 0, 10, 0, 1, 10, 1, 0, 10, 2, 0, 10, 3, 0, 11, 0, 0, 11, 1, 0, 11, 2, 0, 11, 3, 0, 12, 0, 0, 12, 1, 0, 12, 2, 0, 12, 3, 0, 13, 0, 0, 13, 1, 0, 13, 2, 0, 13, 3, 0, 14, 0, 1, 14, 1, 0, 14, 2, 0, 14, 3, 0, 15, 0, 0, 15, 1, 0, 15, 2, 0, 15, 3, 0 ]
						}
, 						{
							"number" : 2,
							"data" : [ 196, "obj-1", "matrixctrl", "list", 0, 0, 1, 0, 1, 0, 0, 2, 0, 0, 3, 0, 1, 0, 0, 1, 1, 0, 1, 2, 0, 1, 3, 0, 2, 0, 0, 2, 1, 0, 2, 2, 0, 2, 3, 0, 3, 0, 0, 3, 1, 0, 3, 2, 0, 3, 3, 0, 4, 0, 0, 4, 1, 1, 4, 2, 0, 4, 3, 0, 5, 0, 0, 5, 1, 0, 5, 2, 0, 5, 3, 0, 6, 0, 1, 6, 1, 0, 6, 2, 0, 6, 3, 0, 7, 0, 0, 7, 1, 0, 7, 2, 0, 7, 3, 0, 8, 0, 0, 8, 1, 0, 8, 2, 0, 8, 3, 0, 9, 0, 0, 9, 1, 0, 9, 2, 0, 9, 3, 0, 10, 0, 1, 10, 1, 0, 10, 2, 0, 10, 3, 0, 11, 0, 0, 11, 1, 0, 11, 2, 0, 11, 3, 0, 12, 0, 0, 12, 1, 1, 12, 2, 0, 12, 3, 0, 13, 0, 0, 13, 1, 0, 13, 2, 0, 13, 3, 0, 14, 0, 1, 14, 1, 0, 14, 2, 1, 14, 3, 0, 15, 0, 0, 15, 1, 0, 15, 2, 1, 15, 3, 0 ]
						}
, 						{
							"number" : 3,
							"data" : [ 196, "obj-1", "matrixctrl", "list", 0, 0, 1, 0, 1, 0, 0, 2, 0, 0, 3, 0, 1, 0, 0, 1, 1, 0, 1, 2, 0, 1, 3, 0, 2, 0, 0, 2, 1, 0, 2, 2, 1, 2, 3, 0, 3, 0, 0, 3, 1, 0, 3, 2, 0, 3, 3, 0, 4, 0, 0, 4, 1, 1, 4, 2, 0, 4, 3, 0, 5, 0, 0, 5, 1, 0, 5, 2, 0, 5, 3, 0, 6, 0, 1, 6, 1, 0, 6, 2, 1, 6, 3, 0, 7, 0, 0, 7, 1, 0, 7, 2, 0, 7, 3, 0, 8, 0, 0, 8, 1, 0, 8, 2, 1, 8, 3, 0, 9, 0, 1, 9, 1, 0, 9, 2, 1, 9, 3, 0, 10, 0, 1, 10, 1, 0, 10, 2, 1, 10, 3, 0, 11, 0, 0, 11, 1, 0, 11, 2, 0, 11, 3, 0, 12, 0, 0, 12, 1, 1, 12, 2, 0, 12, 3, 0, 13, 0, 0, 13, 1, 0, 13, 2, 0, 13, 3, 0, 14, 0, 1, 14, 1, 0, 14, 2, 1, 14, 3, 0, 15, 0, 0, 15, 1, 0, 15, 2, 1, 15, 3, 0 ]
						}
, 						{
							"number" : 4,
							"data" : [ 196, "obj-1", "matrixctrl", "list", 0, 0, 1, 0, 1, 0, 0, 2, 1, 0, 3, 0, 1, 0, 0, 1, 1, 0, 1, 2, 0, 1, 3, 0, 2, 0, 0, 2, 1, 0, 2, 2, 1, 2, 3, 0, 3, 0, 0, 3, 1, 0, 3, 2, 0, 3, 3, 0, 4, 0, 0, 4, 1, 1, 4, 2, 1, 4, 3, 0, 5, 0, 0, 5, 1, 0, 5, 2, 0, 5, 3, 0, 6, 0, 1, 6, 1, 0, 6, 2, 1, 6, 3, 0, 7, 0, 0, 7, 1, 0, 7, 2, 0, 7, 3, 0, 8, 0, 0, 8, 1, 0, 8, 2, 1, 8, 3, 0, 9, 0, 0, 9, 1, 1, 9, 2, 0, 9, 3, 0, 10, 0, 1, 10, 1, 0, 10, 2, 0, 10, 3, 1, 11, 0, 0, 11, 1, 0, 11, 2, 0, 11, 3, 0, 12, 0, 0, 12, 1, 1, 12, 2, 1, 12, 3, 0, 13, 0, 0, 13, 1, 1, 13, 2, 1, 13, 3, 0, 14, 0, 1, 14, 1, 1, 14, 2, 0, 14, 3, 0, 15, 0, 0, 15, 1, 1, 15, 2, 1, 15, 3, 0 ]
						}
 ]
				}

			}
, 			{
				"box" : 				{
					"maxclass" : "message",
					"text" : "0 0 0 0",
					"outlettype" : [ "" ],
					"patching_rect" : [ 383.0, 330.0, 48.0, 18.0 ],
					"id" : "obj-5",
					"fontname" : "Arial",
					"numinlets" : 2,
					"fontsize" : 12.0,
					"numoutlets" : 1
				}

			}
, 			{
				"box" : 				{
					"maxclass" : "comment",
					"text" : "closed hh",
					"patching_rect" : [ 44.0, 282.0, 60.0, 18.0 ],
					"id" : "obj-34",
					"fontname" : "Arial",
					"numinlets" : 1,
					"fontsize" : 10.0,
					"numoutlets" : 0
				}

			}
, 			{
				"box" : 				{
					"maxclass" : "comment",
					"text" : "open hh",
					"patching_rect" : [ 44.0, 298.0, 47.0, 18.0 ],
					"id" : "obj-33",
					"fontname" : "Arial",
					"numinlets" : 1,
					"fontsize" : 10.0,
					"numoutlets" : 0
				}

			}
, 			{
				"box" : 				{
					"maxclass" : "comment",
					"text" : "snare drum",
					"patching_rect" : [ 44.0, 266.0, 61.0, 18.0 ],
					"id" : "obj-31",
					"fontname" : "Arial",
					"numinlets" : 1,
					"fontsize" : 10.0,
					"numoutlets" : 0
				}

			}
, 			{
				"box" : 				{
					"maxclass" : "comment",
					"text" : "bass drum",
					"patching_rect" : [ 44.0, 250.0, 61.0, 18.0 ],
					"id" : "obj-28",
					"fontname" : "Arial",
					"numinlets" : 1,
					"fontsize" : 10.0,
					"numoutlets" : 0
				}

			}
, 			{
				"box" : 				{
					"maxclass" : "message",
					"text" : "46",
					"outlettype" : [ "" ],
					"patching_rect" : [ 504.0, 470.0, 32.5, 18.0 ],
					"id" : "obj-26",
					"fontname" : "Arial",
					"numinlets" : 2,
					"fontsize" : 12.0,
					"numoutlets" : 1
				}

			}
, 			{
				"box" : 				{
					"maxclass" : "message",
					"text" : "42",
					"outlettype" : [ "" ],
					"patching_rect" : [ 450.0, 470.0, 32.5, 18.0 ],
					"id" : "obj-25",
					"fontname" : "Arial",
					"numinlets" : 2,
					"fontsize" : 12.0,
					"numoutlets" : 1
				}

			}
, 			{
				"box" : 				{
					"maxclass" : "message",
					"text" : "38",
					"outlettype" : [ "" ],
					"patching_rect" : [ 396.0, 471.0, 32.5, 18.0 ],
					"id" : "obj-24",
					"fontname" : "Arial",
					"numinlets" : 2,
					"fontsize" : 12.0,
					"numoutlets" : 1
				}

			}
, 			{
				"box" : 				{
					"maxclass" : "message",
					"text" : "36",
					"outlettype" : [ "" ],
					"patching_rect" : [ 342.0, 469.0, 32.5, 18.0 ],
					"id" : "obj-23",
					"fontname" : "Arial",
					"numinlets" : 2,
					"fontsize" : 12.0,
					"numoutlets" : 1
				}

			}
, 			{
				"box" : 				{
					"maxclass" : "newobj",
					"text" : "noteout 10",
					"patching_rect" : [ 396.0, 562.0, 200.0, 20.0 ],
					"id" : "obj-30",
					"fontname" : "Arial",
					"numinlets" : 3,
					"fontsize" : 12.0,
					"numoutlets" : 0
				}

			}
, 			{
				"box" : 				{
					"maxclass" : "newobj",
					"text" : "makenote 100 125",
					"outlettype" : [ "float", "float" ],
					"patching_rect" : [ 396.0, 527.0, 110.0, 20.0 ],
					"id" : "obj-29",
					"fontname" : "Arial",
					"numinlets" : 3,
					"fontsize" : 12.0,
					"numoutlets" : 2
				}

			}
, 			{
				"box" : 				{
					"maxclass" : "newobj",
					"text" : "select 1",
					"outlettype" : [ "bang", "" ],
					"patching_rect" : [ 504.0, 423.0, 52.0, 20.0 ],
					"id" : "obj-20",
					"fontname" : "Arial",
					"numinlets" : 2,
					"fontsize" : 12.0,
					"numoutlets" : 2
				}

			}
, 			{
				"box" : 				{
					"maxclass" : "toggle",
					"outlettype" : [ "int" ],
					"patching_rect" : [ 504.0, 389.0, 20.0, 20.0 ],
					"id" : "obj-21",
					"numinlets" : 1,
					"numoutlets" : 1
				}

			}
, 			{
				"box" : 				{
					"maxclass" : "newobj",
					"text" : "select 1",
					"outlettype" : [ "bang", "" ],
					"patching_rect" : [ 450.0, 423.0, 52.0, 20.0 ],
					"id" : "obj-18",
					"fontname" : "Arial",
					"numinlets" : 2,
					"fontsize" : 12.0,
					"numoutlets" : 2
				}

			}
, 			{
				"box" : 				{
					"maxclass" : "toggle",
					"outlettype" : [ "int" ],
					"patching_rect" : [ 450.0, 389.0, 20.0, 20.0 ],
					"id" : "obj-19",
					"numinlets" : 1,
					"numoutlets" : 1
				}

			}
, 			{
				"box" : 				{
					"maxclass" : "newobj",
					"text" : "select 1",
					"outlettype" : [ "bang", "" ],
					"patching_rect" : [ 396.0, 423.0, 52.0, 20.0 ],
					"id" : "obj-16",
					"fontname" : "Arial",
					"numinlets" : 2,
					"fontsize" : 12.0,
					"numoutlets" : 2
				}

			}
, 			{
				"box" : 				{
					"maxclass" : "toggle",
					"outlettype" : [ "int" ],
					"patching_rect" : [ 396.0, 389.0, 20.0, 20.0 ],
					"id" : "obj-17",
					"numinlets" : 1,
					"numoutlets" : 1
				}

			}
, 			{
				"box" : 				{
					"maxclass" : "newobj",
					"text" : "select 1",
					"outlettype" : [ "bang", "" ],
					"patching_rect" : [ 342.0, 423.0, 52.0, 20.0 ],
					"id" : "obj-15",
					"fontname" : "Arial",
					"numinlets" : 2,
					"fontsize" : 12.0,
					"numoutlets" : 2
				}

			}
, 			{
				"box" : 				{
					"maxclass" : "toggle",
					"outlettype" : [ "int" ],
					"patching_rect" : [ 342.0, 389.0, 20.0, 20.0 ],
					"id" : "obj-11",
					"numinlets" : 1,
					"numoutlets" : 1
				}

			}
, 			{
				"box" : 				{
					"maxclass" : "newobj",
					"text" : "unpack 0 0 0 0",
					"outlettype" : [ "int", "int", "int", "int" ],
					"patching_rect" : [ 342.0, 359.0, 181.0, 20.0 ],
					"id" : "obj-9",
					"fontname" : "Arial",
					"numinlets" : 1,
					"fontsize" : 12.0,
					"numoutlets" : 4
				}

			}
, 			{
				"box" : 				{
					"maxclass" : "message",
					"text" : "getcolumn $1",
					"outlettype" : [ "" ],
					"patching_rect" : [ 103.0, 205.0, 83.0, 18.0 ],
					"id" : "obj-8",
					"fontname" : "Arial",
					"numinlets" : 2,
					"fontsize" : 12.0,
					"numoutlets" : 1
				}

			}
, 			{
				"box" : 				{
					"maxclass" : "button",
					"outlettype" : [ "bang" ],
					"patching_rect" : [ 103.0, 101.0, 20.0, 20.0 ],
					"id" : "obj-4",
					"numinlets" : 1,
					"numoutlets" : 1
				}

			}
, 			{
				"box" : 				{
					"maxclass" : "number",
					"outlettype" : [ "int", "bang" ],
					"patching_rect" : [ 103.0, 171.0, 50.0, 20.0 ],
					"id" : "obj-32",
					"fontname" : "Arial",
					"numinlets" : 1,
					"fontsize" : 12.0,
					"numoutlets" : 2
				}

			}
, 			{
				"box" : 				{
					"maxclass" : "newobj",
					"text" : "counter 0 0 15",
					"outlettype" : [ "int", "", "", "int" ],
					"patching_rect" : [ 103.0, 126.0, 87.0, 20.0 ],
					"id" : "obj-6",
					"fontname" : "Arial",
					"numinlets" : 5,
					"fontsize" : 12.0,
					"numoutlets" : 4
				}

			}
, 			{
				"box" : 				{
					"maxclass" : "toggle",
					"outlettype" : [ "int" ],
					"patching_rect" : [ 103.0, 38.0, 20.0, 20.0 ],
					"id" : "obj-3",
					"numinlets" : 1,
					"numoutlets" : 1
				}

			}
, 			{
				"box" : 				{
					"maxclass" : "newobj",
					"text" : "metro 125",
					"outlettype" : [ "bang" ],
					"patching_rect" : [ 103.0, 76.0, 65.0, 20.0 ],
					"id" : "obj-2",
					"fontname" : "Arial",
					"numinlets" : 2,
					"fontsize" : 12.0,
					"numoutlets" : 1
				}

			}
, 			{
				"box" : 				{
					"maxclass" : "matrixctrl",
					"columns" : 16,
					"outlettype" : [ "list", "list" ],
					"autosize" : 1,
					"patching_rect" : [ 103.0, 250.0, 258.0, 66.0 ],
					"id" : "obj-1",
					"numinlets" : 1,
					"presentation_rect" : [ 0.0, 0.0, 258.0, 96.0 ],
					"numoutlets" : 2
				}

			}
 ],
		"lines" : [ 			{
				"patchline" : 				{
					"source" : [ "obj-6", 0 ],
					"destination" : [ "obj-13", 0 ],
					"hidden" : 0,
					"midpoints" : [ 112.5, 150.5, 218.5, 150.5 ]
				}

			}
, 			{
				"patchline" : 				{
					"source" : [ "obj-23", 0 ],
					"destination" : [ "obj-29", 0 ],
					"hidden" : 0,
					"midpoints" : [  ]
				}

			}
, 			{
				"patchline" : 				{
					"source" : [ "obj-24", 0 ],
					"destination" : [ "obj-29", 0 ],
					"hidden" : 0,
					"midpoints" : [  ]
				}

			}
, 			{
				"patchline" : 				{
					"source" : [ "obj-25", 0 ],
					"destination" : [ "obj-29", 0 ],
					"hidden" : 0,
					"midpoints" : [  ]
				}

			}
, 			{
				"patchline" : 				{
					"source" : [ "obj-26", 0 ],
					"destination" : [ "obj-29", 0 ],
					"hidden" : 0,
					"midpoints" : [  ]
				}

			}
, 			{
				"patchline" : 				{
					"source" : [ "obj-20", 0 ],
					"destination" : [ "obj-26", 0 ],
					"hidden" : 0,
					"midpoints" : [  ]
				}

			}
, 			{
				"patchline" : 				{
					"source" : [ "obj-18", 0 ],
					"destination" : [ "obj-25", 0 ],
					"hidden" : 0,
					"midpoints" : [  ]
				}

			}
, 			{
				"patchline" : 				{
					"source" : [ "obj-16", 0 ],
					"destination" : [ "obj-24", 0 ],
					"hidden" : 0,
					"midpoints" : [  ]
				}

			}
, 			{
				"patchline" : 				{
					"source" : [ "obj-15", 0 ],
					"destination" : [ "obj-23", 0 ],
					"hidden" : 0,
					"midpoints" : [  ]
				}

			}
, 			{
				"patchline" : 				{
					"source" : [ "obj-29", 0 ],
					"destination" : [ "obj-30", 0 ],
					"hidden" : 0,
					"midpoints" : [  ]
				}

			}
, 			{
				"patchline" : 				{
					"source" : [ "obj-29", 1 ],
					"destination" : [ "obj-30", 1 ],
					"hidden" : 0,
					"midpoints" : [  ]
				}

			}
, 			{
				"patchline" : 				{
					"source" : [ "obj-9", 2 ],
					"destination" : [ "obj-19", 0 ],
					"hidden" : 0,
					"midpoints" : [  ]
				}

			}
, 			{
				"patchline" : 				{
					"source" : [ "obj-9", 3 ],
					"destination" : [ "obj-21", 0 ],
					"hidden" : 0,
					"midpoints" : [  ]
				}

			}
, 			{
				"patchline" : 				{
					"source" : [ "obj-9", 1 ],
					"destination" : [ "obj-17", 0 ],
					"hidden" : 0,
					"midpoints" : [  ]
				}

			}
, 			{
				"patchline" : 				{
					"source" : [ "obj-21", 0 ],
					"destination" : [ "obj-20", 0 ],
					"hidden" : 0,
					"midpoints" : [  ]
				}

			}
, 			{
				"patchline" : 				{
					"source" : [ "obj-19", 0 ],
					"destination" : [ "obj-18", 0 ],
					"hidden" : 0,
					"midpoints" : [  ]
				}

			}
, 			{
				"patchline" : 				{
					"source" : [ "obj-17", 0 ],
					"destination" : [ "obj-16", 0 ],
					"hidden" : 0,
					"midpoints" : [  ]
				}

			}
, 			{
				"patchline" : 				{
					"source" : [ "obj-11", 0 ],
					"destination" : [ "obj-15", 0 ],
					"hidden" : 0,
					"midpoints" : [  ]
				}

			}
, 			{
				"patchline" : 				{
					"source" : [ "obj-9", 0 ],
					"destination" : [ "obj-11", 0 ],
					"hidden" : 0,
					"midpoints" : [  ]
				}

			}
, 			{
				"patchline" : 				{
					"source" : [ "obj-1", 1 ],
					"destination" : [ "obj-9", 0 ],
					"hidden" : 0,
					"midpoints" : [  ]
				}

			}
, 			{
				"patchline" : 				{
					"source" : [ "obj-8", 0 ],
					"destination" : [ "obj-1", 0 ],
					"hidden" : 0,
					"midpoints" : [  ]
				}

			}
, 			{
				"patchline" : 				{
					"source" : [ "obj-32", 0 ],
					"destination" : [ "obj-8", 0 ],
					"hidden" : 0,
					"midpoints" : [  ]
				}

			}
, 			{
				"patchline" : 				{
					"source" : [ "obj-3", 0 ],
					"destination" : [ "obj-2", 0 ],
					"hidden" : 0,
					"midpoints" : [  ]
				}

			}
, 			{
				"patchline" : 				{
					"source" : [ "obj-2", 0 ],
					"destination" : [ "obj-4", 0 ],
					"hidden" : 0,
					"midpoints" : [  ]
				}

			}
, 			{
				"patchline" : 				{
					"source" : [ "obj-4", 0 ],
					"destination" : [ "obj-6", 0 ],
					"hidden" : 0,
					"midpoints" : [  ]
				}

			}
, 			{
				"patchline" : 				{
					"source" : [ "obj-6", 0 ],
					"destination" : [ "obj-32", 0 ],
					"hidden" : 0,
					"midpoints" : [  ]
				}

			}
, 			{
				"patchline" : 				{
					"source" : [ "obj-1", 1 ],
					"destination" : [ "obj-5", 1 ],
					"hidden" : 0,
					"midpoints" : [  ]
				}

			}
, 			{
				"patchline" : 				{
					"source" : [ "obj-10", 0 ],
					"destination" : [ "obj-1", 0 ],
					"hidden" : 0,
					"midpoints" : [ 218.5, 247.5, 112.5, 247.5 ]
				}

			}
, 			{
				"patchline" : 				{
					"source" : [ "obj-12", 0 ],
					"destination" : [ "obj-10", 0 ],
					"hidden" : 0,
					"midpoints" : [  ]
				}

			}
, 			{
				"patchline" : 				{
					"source" : [ "obj-13", 0 ],
					"destination" : [ "obj-12", 0 ],
					"hidden" : 0,
					"midpoints" : [  ]
				}

			}
 ]
	}

}
