{
	"patcher" : 	{
		"fileversion" : 1,
		"rect" : [ 25.0, 69.0, 640.0, 480.0 ],
		"bglocked" : 0,
		"defrect" : [ 25.0, 69.0, 640.0, 480.0 ],
		"openrect" : [ 0.0, 0.0, 0.0, 0.0 ],
		"openinpresentation" : 0,
		"default_fontsize" : 12.0,
		"default_fontface" : 0,
		"default_fontname" : "Arial",
		"gridonopen" : 0,
		"gridsize" : [ 15.0, 15.0 ],
		"gridsnaponopen" : 0,
		"toolbarvisible" : 1,
		"boxanimatetime" : 200,
		"imprint" : 0,
		"enablehscroll" : 1,
		"enablevscroll" : 1,
		"devicewidth" : 0.0,
		"boxes" : [ 			{
				"box" : 				{
					"maxclass" : "comment",
					"text" : "4",
					"numoutlets" : 0,
					"fontsize" : 11.595187,
					"id" : "obj-1",
					"fontname" : "Arial",
					"patching_rect" : [ 313.0, 408.0, 19.0, 20.0 ],
					"numinlets" : 1
				}

			}
, 			{
				"box" : 				{
					"maxclass" : "button",
					"numoutlets" : 1,
					"outlettype" : [ "bang" ],
					"id" : "obj-2",
					"patching_rect" : [ 294.0, 408.0, 15.0, 15.0 ],
					"numinlets" : 1
				}

			}
, 			{
				"box" : 				{
					"maxclass" : "comment",
					"text" : "3",
					"numoutlets" : 0,
					"fontsize" : 11.595187,
					"id" : "obj-3",
					"fontname" : "Arial",
					"patching_rect" : [ 373.0, 443.0, 19.0, 20.0 ],
					"numinlets" : 1
				}

			}
, 			{
				"box" : 				{
					"maxclass" : "button",
					"numoutlets" : 1,
					"outlettype" : [ "bang" ],
					"id" : "obj-4",
					"patching_rect" : [ 354.0, 443.0, 15.0, 15.0 ],
					"numinlets" : 1
				}

			}
, 			{
				"box" : 				{
					"maxclass" : "comment",
					"text" : "pop quiz: why is this a bad idea?",
					"numoutlets" : 0,
					"fontsize" : 11.595187,
					"id" : "obj-5",
					"fontname" : "Arial",
					"patching_rect" : [ 48.0, 444.0, 176.0, 20.0 ],
					"numinlets" : 1
				}

			}
, 			{
				"box" : 				{
					"maxclass" : "comment",
					"text" : "2",
					"numoutlets" : 0,
					"fontsize" : 11.595187,
					"id" : "obj-6",
					"fontname" : "Arial",
					"patching_rect" : [ 314.0, 481.0, 19.0, 20.0 ],
					"numinlets" : 1
				}

			}
, 			{
				"box" : 				{
					"maxclass" : "comment",
					"text" : "1",
					"numoutlets" : 0,
					"fontsize" : 11.595187,
					"id" : "obj-7",
					"fontname" : "Arial",
					"patching_rect" : [ 234.0, 443.0, 19.0, 20.0 ],
					"numinlets" : 1
				}

			}
, 			{
				"box" : 				{
					"maxclass" : "button",
					"numoutlets" : 1,
					"outlettype" : [ "bang" ],
					"id" : "obj-8",
					"patching_rect" : [ 294.0, 481.0, 15.0, 15.0 ],
					"numinlets" : 1
				}

			}
, 			{
				"box" : 				{
					"maxclass" : "button",
					"numoutlets" : 1,
					"outlettype" : [ "bang" ],
					"id" : "obj-9",
					"patching_rect" : [ 251.0, 443.0, 15.0, 15.0 ],
					"numinlets" : 1
				}

			}
, 			{
				"box" : 				{
					"maxclass" : "newobj",
					"text" : "print F",
					"numoutlets" : 0,
					"fontsize" : 11.595187,
					"id" : "obj-29",
					"fontname" : "Arial",
					"patching_rect" : [ 516.0, 349.0, 44.0, 20.0 ],
					"numinlets" : 1
				}

			}
, 			{
				"box" : 				{
					"maxclass" : "comment",
					"text" : "F",
					"numoutlets" : 0,
					"fontsize" : 11.595187,
					"id" : "obj-30",
					"fontname" : "Arial",
					"patching_rect" : [ 548.0, 246.0, 19.0, 20.0 ],
					"numinlets" : 1
				}

			}
, 			{
				"box" : 				{
					"maxclass" : "newobj",
					"text" : "t b f last is i first",
					"numoutlets" : 6,
					"fontsize" : 11.595187,
					"outlettype" : [ "bang", "float", "last", "is", "int", "first" ],
					"id" : "obj-31",
					"fontname" : "Arial",
					"patching_rect" : [ 493.0, 269.0, 99.0, 20.0 ],
					"numinlets" : 1
				}

			}
, 			{
				"box" : 				{
					"maxclass" : "newobj",
					"text" : "print B",
					"numoutlets" : 0,
					"fontsize" : 11.595187,
					"id" : "obj-32",
					"fontname" : "Arial",
					"patching_rect" : [ 182.0, 349.0, 55.0, 20.0 ],
					"numinlets" : 1
				}

			}
, 			{
				"box" : 				{
					"maxclass" : "message",
					"text" : "60",
					"numoutlets" : 1,
					"fontsize" : 11.595187,
					"outlettype" : [ "" ],
					"id" : "obj-33",
					"fontname" : "Arial",
					"patching_rect" : [ 208.0, 299.0, 21.0, 18.0 ],
					"numinlets" : 2
				}

			}
, 			{
				"box" : 				{
					"maxclass" : "message",
					"text" : "40",
					"numoutlets" : 1,
					"fontsize" : 11.595187,
					"outlettype" : [ "" ],
					"id" : "obj-34",
					"fontname" : "Arial",
					"patching_rect" : [ 155.0, 299.0, 21.0, 18.0 ],
					"numinlets" : 2
				}

			}
, 			{
				"box" : 				{
					"maxclass" : "message",
					"text" : "50",
					"numoutlets" : 1,
					"fontsize" : 11.595187,
					"outlettype" : [ "" ],
					"id" : "obj-35",
					"fontname" : "Arial",
					"patching_rect" : [ 182.0, 299.0, 21.0, 18.0 ],
					"numinlets" : 2
				}

			}
, 			{
				"box" : 				{
					"maxclass" : "button",
					"numoutlets" : 1,
					"outlettype" : [ "bang" ],
					"id" : "obj-36",
					"patching_rect" : [ 153.0, 243.0, 23.0, 23.0 ],
					"numinlets" : 1
				}

			}
, 			{
				"box" : 				{
					"maxclass" : "newobj",
					"text" : "bangbang 3",
					"numoutlets" : 3,
					"fontsize" : 11.595187,
					"color" : [ 0.184314, 1.0, 0.0, 1.0 ],
					"outlettype" : [ "bang", "bang", "bang" ],
					"id" : "obj-37",
					"fontname" : "Arial",
					"patching_rect" : [ 153.0, 269.0, 76.0, 20.0 ],
					"numinlets" : 1
				}

			}
, 			{
				"box" : 				{
					"maxclass" : "newobj",
					"text" : "print left",
					"linecount" : 2,
					"numoutlets" : 0,
					"fontsize" : 11.595187,
					"id" : "obj-38",
					"fontname" : "Arial",
					"patching_rect" : [ 286.0, 334.0, 34.0, 33.0 ],
					"numinlets" : 1
				}

			}
, 			{
				"box" : 				{
					"maxclass" : "newobj",
					"text" : "print middle",
					"linecount" : 2,
					"numoutlets" : 0,
					"fontsize" : 11.595187,
					"id" : "obj-39",
					"fontname" : "Arial",
					"patching_rect" : [ 324.0, 334.0, 47.0, 33.0 ],
					"numinlets" : 1
				}

			}
, 			{
				"box" : 				{
					"maxclass" : "newobj",
					"text" : "print right",
					"linecount" : 2,
					"numoutlets" : 0,
					"fontsize" : 11.595187,
					"id" : "obj-40",
					"fontname" : "Arial",
					"patching_rect" : [ 375.0, 334.0, 38.0, 33.0 ],
					"numinlets" : 1
				}

			}
, 			{
				"box" : 				{
					"maxclass" : "newobj",
					"text" : "trigger i i i",
					"numoutlets" : 3,
					"fontsize" : 11.595187,
					"color" : [ 0.184314, 1.0, 0.0, 1.0 ],
					"outlettype" : [ "int", "int", "int" ],
					"id" : "obj-41",
					"fontname" : "Arial",
					"patching_rect" : [ 287.0, 269.0, 93.0, 20.0 ],
					"numinlets" : 1
				}

			}
, 			{
				"box" : 				{
					"maxclass" : "message",
					"text" : "90",
					"numoutlets" : 1,
					"fontsize" : 11.595187,
					"outlettype" : [ "" ],
					"id" : "obj-42",
					"fontname" : "Arial",
					"patching_rect" : [ 287.0, 246.0, 21.0, 18.0 ],
					"numinlets" : 2
				}

			}
, 			{
				"box" : 				{
					"maxclass" : "newobj",
					"text" : "print A",
					"numoutlets" : 0,
					"fontsize" : 11.595187,
					"id" : "obj-43",
					"fontname" : "Arial",
					"patching_rect" : [ 93.0, 349.0, 46.0, 20.0 ],
					"numinlets" : 1
				}

			}
, 			{
				"box" : 				{
					"maxclass" : "message",
					"text" : "40",
					"numoutlets" : 1,
					"fontsize" : 11.595187,
					"outlettype" : [ "" ],
					"id" : "obj-44",
					"fontname" : "Arial",
					"patching_rect" : [ 71.0, 299.0, 21.0, 18.0 ],
					"numinlets" : 2
				}

			}
, 			{
				"box" : 				{
					"maxclass" : "message",
					"text" : "50",
					"numoutlets" : 1,
					"fontsize" : 11.595187,
					"outlettype" : [ "" ],
					"id" : "obj-45",
					"fontname" : "Arial",
					"patching_rect" : [ 93.0, 299.0, 21.0, 18.0 ],
					"numinlets" : 2
				}

			}
, 			{
				"box" : 				{
					"maxclass" : "message",
					"text" : "60",
					"numoutlets" : 1,
					"fontsize" : 11.595187,
					"outlettype" : [ "" ],
					"id" : "obj-46",
					"fontname" : "Arial",
					"patching_rect" : [ 115.0, 299.0, 21.0, 18.0 ],
					"numinlets" : 2
				}

			}
, 			{
				"box" : 				{
					"maxclass" : "button",
					"numoutlets" : 1,
					"outlettype" : [ "bang" ],
					"id" : "obj-47",
					"patching_rect" : [ 93.0, 243.0, 23.0, 23.0 ],
					"numinlets" : 1
				}

			}
, 			{
				"box" : 				{
					"maxclass" : "message",
					"text" : "90",
					"numoutlets" : 1,
					"fontsize" : 11.595187,
					"outlettype" : [ "" ],
					"id" : "obj-48",
					"fontname" : "Arial",
					"patching_rect" : [ 260.0, 269.0, 21.0, 18.0 ],
					"numinlets" : 2
				}

			}
, 			{
				"box" : 				{
					"maxclass" : "comment",
					"text" : "A",
					"numoutlets" : 0,
					"fontsize" : 11.595187,
					"id" : "obj-49",
					"fontname" : "Arial",
					"patching_rect" : [ 115.0, 243.0, 19.0, 20.0 ],
					"numinlets" : 1
				}

			}
, 			{
				"box" : 				{
					"maxclass" : "comment",
					"text" : "B",
					"numoutlets" : 0,
					"fontsize" : 11.595187,
					"id" : "obj-50",
					"fontname" : "Arial",
					"patching_rect" : [ 175.0, 243.0, 19.0, 20.0 ],
					"numinlets" : 1
				}

			}
, 			{
				"box" : 				{
					"maxclass" : "comment",
					"text" : "C",
					"numoutlets" : 0,
					"fontsize" : 11.595187,
					"id" : "obj-51",
					"fontname" : "Arial",
					"patching_rect" : [ 242.0, 269.0, 19.0, 20.0 ],
					"numinlets" : 1
				}

			}
, 			{
				"box" : 				{
					"maxclass" : "comment",
					"text" : "D",
					"numoutlets" : 0,
					"fontsize" : 11.595187,
					"id" : "obj-52",
					"fontname" : "Arial",
					"patching_rect" : [ 316.0, 246.0, 19.0, 20.0 ],
					"numinlets" : 1
				}

			}
, 			{
				"box" : 				{
					"maxclass" : "newobj",
					"text" : "print E",
					"numoutlets" : 0,
					"fontsize" : 11.595187,
					"id" : "obj-53",
					"fontname" : "Arial",
					"patching_rect" : [ 426.0, 349.0, 44.0, 20.0 ],
					"numinlets" : 1
				}

			}
, 			{
				"box" : 				{
					"maxclass" : "comment",
					"text" : "E",
					"numoutlets" : 0,
					"fontsize" : 11.595187,
					"id" : "obj-54",
					"fontname" : "Arial",
					"patching_rect" : [ 432.0, 246.0, 19.0, 20.0 ],
					"numinlets" : 1
				}

			}
, 			{
				"box" : 				{
					"maxclass" : "newobj",
					"text" : "t b f i",
					"numoutlets" : 3,
					"fontsize" : 11.595187,
					"outlettype" : [ "bang", "float", "int" ],
					"id" : "obj-55",
					"fontname" : "Arial",
					"patching_rect" : [ 403.0, 269.0, 62.0, 20.0 ],
					"numinlets" : 1
				}

			}
, 			{
				"box" : 				{
					"maxclass" : "message",
					"text" : "90",
					"numoutlets" : 1,
					"fontsize" : 11.595187,
					"outlettype" : [ "" ],
					"id" : "obj-56",
					"fontname" : "Arial",
					"patching_rect" : [ 403.0, 246.0, 21.0, 18.0 ],
					"numinlets" : 2
				}

			}
, 			{
				"box" : 				{
					"maxclass" : "comment",
					"text" : "almost all max objects with more than one outlet will produce their messages out the rightmost outlet first, going towards the left...",
					"linecount" : 2,
					"numoutlets" : 0,
					"fontsize" : 11.595187,
					"id" : "obj-57",
					"fontname" : "Arial",
					"patching_rect" : [ 182.0, 374.0, 350.0, 33.0 ],
					"numinlets" : 1
				}

			}
, 			{
				"box" : 				{
					"maxclass" : "button",
					"numoutlets" : 1,
					"outlettype" : [ "bang" ],
					"id" : "obj-70",
					"patching_rect" : [ 581.0, 158.0, 21.0, 21.0 ],
					"numinlets" : 1
				}

			}
, 			{
				"box" : 				{
					"maxclass" : "button",
					"numoutlets" : 1,
					"outlettype" : [ "bang" ],
					"id" : "obj-71",
					"patching_rect" : [ 556.0, 197.0, 21.0, 21.0 ],
					"numinlets" : 1
				}

			}
, 			{
				"box" : 				{
					"maxclass" : "button",
					"numoutlets" : 1,
					"outlettype" : [ "bang" ],
					"id" : "obj-72",
					"patching_rect" : [ 556.0, 119.0, 21.0, 21.0 ],
					"numinlets" : 1
				}

			}
, 			{
				"box" : 				{
					"maxclass" : "button",
					"numoutlets" : 1,
					"outlettype" : [ "bang" ],
					"id" : "obj-73",
					"patching_rect" : [ 556.0, 158.0, 21.0, 21.0 ],
					"numinlets" : 1
				}

			}
, 			{
				"box" : 				{
					"maxclass" : "button",
					"numoutlets" : 1,
					"outlettype" : [ "bang" ],
					"id" : "obj-74",
					"patching_rect" : [ 522.0, 119.0, 21.0, 21.0 ],
					"numinlets" : 1
				}

			}
, 			{
				"box" : 				{
					"maxclass" : "button",
					"numoutlets" : 1,
					"outlettype" : [ "bang" ],
					"id" : "obj-75",
					"patching_rect" : [ 435.0, 197.0, 21.0, 21.0 ],
					"numinlets" : 1
				}

			}
, 			{
				"box" : 				{
					"maxclass" : "button",
					"numoutlets" : 1,
					"outlettype" : [ "bang" ],
					"id" : "obj-76",
					"patching_rect" : [ 435.0, 158.0, 21.0, 21.0 ],
					"numinlets" : 1
				}

			}
, 			{
				"box" : 				{
					"maxclass" : "button",
					"numoutlets" : 1,
					"outlettype" : [ "bang" ],
					"id" : "obj-77",
					"patching_rect" : [ 435.0, 119.0, 21.0, 21.0 ],
					"numinlets" : 1
				}

			}
, 			{
				"box" : 				{
					"maxclass" : "button",
					"numoutlets" : 1,
					"outlettype" : [ "bang" ],
					"id" : "obj-78",
					"patching_rect" : [ 475.0, 197.0, 21.0, 21.0 ],
					"numinlets" : 1
				}

			}
, 			{
				"box" : 				{
					"maxclass" : "button",
					"numoutlets" : 1,
					"outlettype" : [ "bang" ],
					"id" : "obj-79",
					"patching_rect" : [ 475.0, 158.0, 21.0, 21.0 ],
					"numinlets" : 1
				}

			}
, 			{
				"box" : 				{
					"maxclass" : "button",
					"numoutlets" : 1,
					"outlettype" : [ "bang" ],
					"id" : "obj-80",
					"patching_rect" : [ 475.0, 119.0, 21.0, 21.0 ],
					"numinlets" : 1
				}

			}
, 			{
				"box" : 				{
					"maxclass" : "button",
					"numoutlets" : 1,
					"outlettype" : [ "bang" ],
					"id" : "obj-81",
					"patching_rect" : [ 475.0, 80.0, 21.0, 21.0 ],
					"numinlets" : 1
				}

			}
, 			{
				"box" : 				{
					"maxclass" : "button",
					"numoutlets" : 1,
					"outlettype" : [ "bang" ],
					"id" : "obj-86",
					"patching_rect" : [ 343.0, 164.0, 21.0, 21.0 ],
					"numinlets" : 1
				}

			}
, 			{
				"box" : 				{
					"maxclass" : "button",
					"numoutlets" : 1,
					"outlettype" : [ "bang" ],
					"id" : "obj-87",
					"patching_rect" : [ 343.0, 138.0, 21.0, 21.0 ],
					"numinlets" : 1
				}

			}
, 			{
				"box" : 				{
					"maxclass" : "button",
					"numoutlets" : 1,
					"outlettype" : [ "bang" ],
					"id" : "obj-88",
					"patching_rect" : [ 343.0, 113.0, 21.0, 21.0 ],
					"numinlets" : 1
				}

			}
, 			{
				"box" : 				{
					"maxclass" : "button",
					"numoutlets" : 1,
					"outlettype" : [ "bang" ],
					"id" : "obj-89",
					"patching_rect" : [ 269.0, 79.0, 21.0, 21.0 ],
					"numinlets" : 1
				}

			}
, 			{
				"box" : 				{
					"maxclass" : "button",
					"numoutlets" : 1,
					"outlettype" : [ "bang" ],
					"id" : "obj-94",
					"patching_rect" : [ 77.0, 129.0, 21.0, 21.0 ],
					"numinlets" : 1
				}

			}
, 			{
				"box" : 				{
					"maxclass" : "button",
					"numoutlets" : 1,
					"outlettype" : [ "bang" ],
					"id" : "obj-95",
					"patching_rect" : [ 119.0, 129.0, 21.0, 21.0 ],
					"numinlets" : 1
				}

			}
, 			{
				"box" : 				{
					"maxclass" : "button",
					"numoutlets" : 1,
					"outlettype" : [ "bang" ],
					"id" : "obj-96",
					"patching_rect" : [ 167.0, 129.0, 21.0, 21.0 ],
					"numinlets" : 1
				}

			}
, 			{
				"box" : 				{
					"maxclass" : "button",
					"numoutlets" : 1,
					"outlettype" : [ "bang" ],
					"id" : "obj-97",
					"patching_rect" : [ 119.0, 79.0, 21.0, 21.0 ],
					"numinlets" : 1
				}

			}
, 			{
				"box" : 				{
					"maxclass" : "comment",
					"text" : "It's the spatial layout of the OBJECTS that matters, not the spatial layout of the patchcords.",
					"linecount" : 2,
					"numoutlets" : 0,
					"fontsize" : 11.595187,
					"id" : "obj-107",
					"fontname" : "Arial",
					"patching_rect" : [ 156.0, 195.0, 257.0, 33.0 ],
					"numinlets" : 1
				}

			}
, 			{
				"box" : 				{
					"maxclass" : "comment",
					"text" : "...using a depth-first traversal.",
					"numoutlets" : 0,
					"fontsize" : 11.595187,
					"id" : "obj-126",
					"fontname" : "Arial",
					"patching_rect" : [ 404.0, 59.0, 168.0, 20.0 ],
					"numinlets" : 1
				}

			}
, 			{
				"box" : 				{
					"maxclass" : "comment",
					"text" : "...and bottom to top...",
					"numoutlets" : 0,
					"fontsize" : 11.595187,
					"id" : "obj-127",
					"fontname" : "Arial",
					"patching_rect" : [ 251.0, 60.0, 118.0, 20.0 ],
					"numinlets" : 1
				}

			}
, 			{
				"box" : 				{
					"maxclass" : "comment",
					"text" : "objects pass messages right->left...",
					"numoutlets" : 0,
					"fontsize" : 11.595187,
					"id" : "obj-151",
					"fontname" : "Arial",
					"patching_rect" : [ 56.0, 60.0, 191.0, 20.0 ],
					"numinlets" : 1
				}

			}
, 			{
				"box" : 				{
					"maxclass" : "comment",
					"text" : "trace these patches:",
					"numoutlets" : 0,
					"fontsize" : 11.595187,
					"id" : "obj-155",
					"fontname" : "Arial",
					"patching_rect" : [ 27.0, 40.0, 113.0, 20.0 ],
					"numinlets" : 1
				}

			}
, 			{
				"box" : 				{
					"maxclass" : "flonum",
					"numoutlets" : 2,
					"fontsize" : 11.595187,
					"outlettype" : [ "float", "bang" ],
					"triscale" : 0.9,
					"htextcolor" : [ 0.870588, 0.870588, 0.870588, 1.0 ],
					"id" : "obj-159",
					"fontname" : "Arial",
					"patching_rect" : [ 493.0, 246.0, 55.0, 20.0 ],
					"numinlets" : 1
				}

			}
 ],
		"lines" : [ 			{
				"patchline" : 				{
					"source" : [ "obj-47", 0 ],
					"destination" : [ "obj-44", 0 ],
					"hidden" : 0,
					"midpoints" : [  ]
				}

			}
, 			{
				"patchline" : 				{
					"source" : [ "obj-97", 0 ],
					"destination" : [ "obj-94", 0 ],
					"hidden" : 0,
					"midpoints" : [  ]
				}

			}
, 			{
				"patchline" : 				{
					"source" : [ "obj-47", 0 ],
					"destination" : [ "obj-45", 0 ],
					"hidden" : 0,
					"midpoints" : [  ]
				}

			}
, 			{
				"patchline" : 				{
					"source" : [ "obj-44", 0 ],
					"destination" : [ "obj-43", 0 ],
					"hidden" : 0,
					"midpoints" : [  ]
				}

			}
, 			{
				"patchline" : 				{
					"source" : [ "obj-46", 0 ],
					"destination" : [ "obj-43", 0 ],
					"hidden" : 0,
					"midpoints" : [  ]
				}

			}
, 			{
				"patchline" : 				{
					"source" : [ "obj-45", 0 ],
					"destination" : [ "obj-43", 0 ],
					"hidden" : 0,
					"midpoints" : [  ]
				}

			}
, 			{
				"patchline" : 				{
					"source" : [ "obj-47", 0 ],
					"destination" : [ "obj-46", 0 ],
					"hidden" : 0,
					"midpoints" : [  ]
				}

			}
, 			{
				"patchline" : 				{
					"source" : [ "obj-97", 0 ],
					"destination" : [ "obj-95", 0 ],
					"hidden" : 0,
					"midpoints" : [  ]
				}

			}
, 			{
				"patchline" : 				{
					"source" : [ "obj-36", 0 ],
					"destination" : [ "obj-37", 0 ],
					"hidden" : 0,
					"midpoints" : [  ]
				}

			}
, 			{
				"patchline" : 				{
					"source" : [ "obj-37", 2 ],
					"destination" : [ "obj-34", 0 ],
					"hidden" : 0,
					"midpoints" : [  ]
				}

			}
, 			{
				"patchline" : 				{
					"source" : [ "obj-97", 0 ],
					"destination" : [ "obj-96", 0 ],
					"hidden" : 0,
					"midpoints" : [  ]
				}

			}
, 			{
				"patchline" : 				{
					"source" : [ "obj-37", 1 ],
					"destination" : [ "obj-35", 0 ],
					"hidden" : 0,
					"midpoints" : [  ]
				}

			}
, 			{
				"patchline" : 				{
					"source" : [ "obj-34", 0 ],
					"destination" : [ "obj-32", 0 ],
					"hidden" : 0,
					"midpoints" : [  ]
				}

			}
, 			{
				"patchline" : 				{
					"source" : [ "obj-35", 0 ],
					"destination" : [ "obj-32", 0 ],
					"hidden" : 0,
					"midpoints" : [  ]
				}

			}
, 			{
				"patchline" : 				{
					"source" : [ "obj-33", 0 ],
					"destination" : [ "obj-32", 0 ],
					"hidden" : 0,
					"midpoints" : [  ]
				}

			}
, 			{
				"patchline" : 				{
					"source" : [ "obj-37", 0 ],
					"destination" : [ "obj-33", 0 ],
					"hidden" : 0,
					"midpoints" : [  ]
				}

			}
, 			{
				"patchline" : 				{
					"source" : [ "obj-2", 0 ],
					"destination" : [ "obj-9", 0 ],
					"hidden" : 0,
					"midpoints" : [  ]
				}

			}
, 			{
				"patchline" : 				{
					"source" : [ "obj-48", 0 ],
					"destination" : [ "obj-38", 0 ],
					"hidden" : 0,
					"midpoints" : [  ]
				}

			}
, 			{
				"patchline" : 				{
					"source" : [ "obj-41", 2 ],
					"destination" : [ "obj-38", 0 ],
					"hidden" : 0,
					"midpoints" : [  ]
				}

			}
, 			{
				"patchline" : 				{
					"source" : [ "obj-42", 0 ],
					"destination" : [ "obj-41", 0 ],
					"hidden" : 0,
					"midpoints" : [  ]
				}

			}
, 			{
				"patchline" : 				{
					"source" : [ "obj-4", 0 ],
					"destination" : [ "obj-2", 0 ],
					"hidden" : 0,
					"midpoints" : [  ]
				}

			}
, 			{
				"patchline" : 				{
					"source" : [ "obj-9", 0 ],
					"destination" : [ "obj-8", 0 ],
					"hidden" : 0,
					"midpoints" : [  ]
				}

			}
, 			{
				"patchline" : 				{
					"source" : [ "obj-48", 0 ],
					"destination" : [ "obj-39", 0 ],
					"hidden" : 0,
					"midpoints" : [  ]
				}

			}
, 			{
				"patchline" : 				{
					"source" : [ "obj-41", 1 ],
					"destination" : [ "obj-39", 0 ],
					"hidden" : 0,
					"midpoints" : [  ]
				}

			}
, 			{
				"patchline" : 				{
					"source" : [ "obj-89", 0 ],
					"destination" : [ "obj-88", 0 ],
					"hidden" : 0,
					"midpoints" : [  ]
				}

			}
, 			{
				"patchline" : 				{
					"source" : [ "obj-89", 0 ],
					"destination" : [ "obj-87", 0 ],
					"hidden" : 0,
					"midpoints" : [  ]
				}

			}
, 			{
				"patchline" : 				{
					"source" : [ "obj-89", 0 ],
					"destination" : [ "obj-86", 0 ],
					"hidden" : 0,
					"midpoints" : [  ]
				}

			}
, 			{
				"patchline" : 				{
					"source" : [ "obj-8", 0 ],
					"destination" : [ "obj-4", 0 ],
					"hidden" : 0,
					"midpoints" : [  ]
				}

			}
, 			{
				"patchline" : 				{
					"source" : [ "obj-48", 0 ],
					"destination" : [ "obj-40", 0 ],
					"hidden" : 0,
					"midpoints" : [  ]
				}

			}
, 			{
				"patchline" : 				{
					"source" : [ "obj-41", 0 ],
					"destination" : [ "obj-40", 0 ],
					"hidden" : 0,
					"midpoints" : [  ]
				}

			}
, 			{
				"patchline" : 				{
					"source" : [ "obj-56", 0 ],
					"destination" : [ "obj-55", 0 ],
					"hidden" : 0,
					"midpoints" : [  ]
				}

			}
, 			{
				"patchline" : 				{
					"source" : [ "obj-55", 2 ],
					"destination" : [ "obj-53", 0 ],
					"hidden" : 0,
					"midpoints" : [  ]
				}

			}
, 			{
				"patchline" : 				{
					"source" : [ "obj-55", 1 ],
					"destination" : [ "obj-53", 0 ],
					"hidden" : 0,
					"midpoints" : [  ]
				}

			}
, 			{
				"patchline" : 				{
					"source" : [ "obj-55", 0 ],
					"destination" : [ "obj-53", 0 ],
					"hidden" : 0,
					"midpoints" : [  ]
				}

			}
, 			{
				"patchline" : 				{
					"source" : [ "obj-81", 0 ],
					"destination" : [ "obj-77", 0 ],
					"hidden" : 0,
					"midpoints" : [  ]
				}

			}
, 			{
				"patchline" : 				{
					"source" : [ "obj-77", 0 ],
					"destination" : [ "obj-76", 0 ],
					"hidden" : 0,
					"midpoints" : [  ]
				}

			}
, 			{
				"patchline" : 				{
					"source" : [ "obj-76", 0 ],
					"destination" : [ "obj-75", 0 ],
					"hidden" : 0,
					"midpoints" : [  ]
				}

			}
, 			{
				"patchline" : 				{
					"source" : [ "obj-81", 0 ],
					"destination" : [ "obj-80", 0 ],
					"hidden" : 0,
					"midpoints" : [  ]
				}

			}
, 			{
				"patchline" : 				{
					"source" : [ "obj-80", 0 ],
					"destination" : [ "obj-79", 0 ],
					"hidden" : 0,
					"midpoints" : [  ]
				}

			}
, 			{
				"patchline" : 				{
					"source" : [ "obj-79", 0 ],
					"destination" : [ "obj-78", 0 ],
					"hidden" : 0,
					"midpoints" : [  ]
				}

			}
, 			{
				"patchline" : 				{
					"source" : [ "obj-159", 0 ],
					"destination" : [ "obj-31", 0 ],
					"hidden" : 0,
					"midpoints" : [  ]
				}

			}
, 			{
				"patchline" : 				{
					"source" : [ "obj-31", 5 ],
					"destination" : [ "obj-29", 0 ],
					"hidden" : 0,
					"midpoints" : [  ]
				}

			}
, 			{
				"patchline" : 				{
					"source" : [ "obj-31", 4 ],
					"destination" : [ "obj-29", 0 ],
					"hidden" : 0,
					"midpoints" : [  ]
				}

			}
, 			{
				"patchline" : 				{
					"source" : [ "obj-31", 3 ],
					"destination" : [ "obj-29", 0 ],
					"hidden" : 0,
					"midpoints" : [  ]
				}

			}
, 			{
				"patchline" : 				{
					"source" : [ "obj-31", 0 ],
					"destination" : [ "obj-29", 0 ],
					"hidden" : 0,
					"midpoints" : [  ]
				}

			}
, 			{
				"patchline" : 				{
					"source" : [ "obj-31", 1 ],
					"destination" : [ "obj-29", 0 ],
					"hidden" : 0,
					"midpoints" : [  ]
				}

			}
, 			{
				"patchline" : 				{
					"source" : [ "obj-31", 2 ],
					"destination" : [ "obj-29", 0 ],
					"hidden" : 0,
					"midpoints" : [  ]
				}

			}
, 			{
				"patchline" : 				{
					"source" : [ "obj-81", 0 ],
					"destination" : [ "obj-74", 0 ],
					"hidden" : 0,
					"midpoints" : [  ]
				}

			}
, 			{
				"patchline" : 				{
					"source" : [ "obj-74", 0 ],
					"destination" : [ "obj-72", 0 ],
					"hidden" : 0,
					"midpoints" : [  ]
				}

			}
, 			{
				"patchline" : 				{
					"source" : [ "obj-74", 0 ],
					"destination" : [ "obj-73", 0 ],
					"hidden" : 0,
					"midpoints" : [  ]
				}

			}
, 			{
				"patchline" : 				{
					"source" : [ "obj-73", 0 ],
					"destination" : [ "obj-71", 0 ],
					"hidden" : 0,
					"midpoints" : [  ]
				}

			}
, 			{
				"patchline" : 				{
					"source" : [ "obj-72", 0 ],
					"destination" : [ "obj-70", 0 ],
					"hidden" : 0,
					"midpoints" : [  ]
				}

			}
 ]
	}

}
