{
	"patcher" : 	{
		"fileversion" : 1,
		"rect" : [ 506.0, 132.0, 213.0, 255.0 ],
		"bgcolor" : [ 1.0, 1.0, 1.0, 1.0 ],
		"bglocked" : 0,
		"defrect" : [ 506.0, 132.0, 213.0, 255.0 ],
		"openrect" : [ 0.0, 0.0, 0.0, 0.0 ],
		"openinpresentation" : 0,
		"default_fontsize" : 10.0,
		"default_fontface" : 0,
		"default_fontname" : "Arial",
		"gridonopen" : 0,
		"gridsize" : [ 15.0, 15.0 ],
		"gridsnaponopen" : 0,
		"toolbarvisible" : 1,
		"boxanimatetime" : 200,
		"imprint" : 1,
		"enablehscroll" : 1,
		"enablevscroll" : 1,
		"devicewidth" : 0.0,
		"boxes" : [ 			{
				"box" : 				{
					"maxclass" : "newobj",
					"text" : "pack 0 0",
					"textcolor" : [ 0.0, 0.0, 0.0, 1.0 ],
					"fontface" : 0,
					"fontsize" : 11.595187,
					"background" : 0,
					"presentation_rect" : [ 0.0, 0.0, 0.0, 0.0 ],
					"color" : [ 0.8, 0.84, 0.71, 1.0 ],
					"numinlets" : 2,
					"bgcolor" : [ 1.0, 1.0, 1.0, 1.0 ],
					"ignoreclick" : 0,
					"numoutlets" : 1,
					"fontname" : "Arial",
					"patching_rect" : [ 48.0, 177.0, 100.0, 20.0 ],
					"presentation" : 0,
					"hidden" : 0,
					"id" : "obj-27",
					"outlettype" : [ "" ]
				}

			}
, 			{
				"box" : 				{
					"maxclass" : "newobj",
					"text" : "print",
					"textcolor" : [ 0.0, 0.0, 0.0, 1.0 ],
					"fontface" : 0,
					"fontsize" : 11.595187,
					"background" : 0,
					"presentation_rect" : [ 0.0, 0.0, 0.0, 0.0 ],
					"color" : [ 0.8, 0.84, 0.71, 1.0 ],
					"numinlets" : 1,
					"bgcolor" : [ 1.0, 1.0, 1.0, 1.0 ],
					"ignoreclick" : 0,
					"numoutlets" : 0,
					"fontname" : "Arial",
					"patching_rect" : [ 48.0, 212.0, 33.0, 20.0 ],
					"presentation" : 0,
					"hidden" : 0,
					"id" : "obj-16"
				}

			}
, 			{
				"box" : 				{
					"maxclass" : "newobj",
					"text" : "noteout",
					"textcolor" : [ 0.0, 0.0, 0.0, 1.0 ],
					"fontface" : 0,
					"fontsize" : 11.595187,
					"background" : 0,
					"presentation_rect" : [ 0.0, 0.0, 0.0, 0.0 ],
					"color" : [ 0.05098, 0.027451, 0.478431, 1.0 ],
					"numinlets" : 3,
					"bgcolor" : [ 1.0, 1.0, 1.0, 1.0 ],
					"ignoreclick" : 0,
					"numoutlets" : 0,
					"fontname" : "Arial",
					"patching_rect" : [ 96.0, 212.0, 49.0, 20.0 ],
					"presentation" : 0,
					"hidden" : 0,
					"id" : "obj-10"
				}

			}
, 			{
				"box" : 				{
					"maxclass" : "number",
					"textcolor" : [ 0.0, 0.0, 0.0, 1.0 ],
					"outputonclick" : 0,
					"fontface" : 0,
					"triangle" : 1,
					"fontsize" : 11.595187,
					"minimum" : "<none>",
					"format" : 0,
					"htricolor" : [ 0.87, 0.82, 0.24, 1.0 ],
					"maximum" : "<none>",
					"background" : 0,
					"mouseup" : 0,
					"presentation_rect" : [ 0.0, 0.0, 0.0, 0.0 ],
					"cantchange" : 0,
					"numinlets" : 1,
					"hbgcolor" : [ 0.0, 0.0, 0.0, 1.0 ],
					"tricolor" : [ 0.75, 0.75, 0.75, 1.0 ],
					"bgcolor" : [ 1.0, 1.0, 1.0, 1.0 ],
					"htextcolor" : [ 1.0, 1.0, 1.0, 1.0 ],
					"triscale" : 1.0,
					"ignoreclick" : 0,
					"numoutlets" : 2,
					"fontname" : "Arial",
					"bordercolor" : [ 0.5, 0.5, 0.5, 1.0 ],
					"patching_rect" : [ 129.0, 148.0, 40.0, 20.0 ],
					"presentation" : 0,
					"hidden" : 0,
					"id" : "obj-9",
					"outlettype" : [ "int", "bang" ]
				}

			}
, 			{
				"box" : 				{
					"maxclass" : "number",
					"textcolor" : [ 0.0, 0.0, 0.0, 1.0 ],
					"outputonclick" : 0,
					"fontface" : 0,
					"triangle" : 1,
					"fontsize" : 11.595187,
					"minimum" : "<none>",
					"format" : 0,
					"htricolor" : [ 0.87, 0.82, 0.24, 1.0 ],
					"maximum" : "<none>",
					"background" : 0,
					"mouseup" : 0,
					"presentation_rect" : [ 0.0, 0.0, 0.0, 0.0 ],
					"cantchange" : 0,
					"numinlets" : 1,
					"hbgcolor" : [ 0.0, 0.0, 0.0, 1.0 ],
					"tricolor" : [ 0.75, 0.75, 0.75, 1.0 ],
					"bgcolor" : [ 1.0, 1.0, 1.0, 1.0 ],
					"htextcolor" : [ 1.0, 1.0, 1.0, 1.0 ],
					"triscale" : 1.0,
					"ignoreclick" : 0,
					"numoutlets" : 2,
					"fontname" : "Arial",
					"bordercolor" : [ 0.5, 0.5, 0.5, 1.0 ],
					"patching_rect" : [ 48.0, 148.0, 40.0, 20.0 ],
					"presentation" : 0,
					"hidden" : 0,
					"id" : "obj-8",
					"outlettype" : [ "int", "bang" ]
				}

			}
, 			{
				"box" : 				{
					"maxclass" : "newobj",
					"text" : "makenote 127 50",
					"textcolor" : [ 0.0, 0.0, 0.0, 1.0 ],
					"fontface" : 0,
					"fontsize" : 11.595187,
					"background" : 0,
					"presentation_rect" : [ 0.0, 0.0, 0.0, 0.0 ],
					"color" : [ 0.141176, 0.768627, 0.0, 1.0 ],
					"numinlets" : 3,
					"bgcolor" : [ 1.0, 1.0, 1.0, 1.0 ],
					"ignoreclick" : 0,
					"numoutlets" : 2,
					"fontname" : "Arial",
					"patching_rect" : [ 48.0, 117.0, 100.0, 20.0 ],
					"presentation" : 0,
					"hidden" : 0,
					"id" : "obj-7",
					"outlettype" : [ "float", "float" ]
				}

			}
, 			{
				"box" : 				{
					"maxclass" : "comment",
					"text" : "note",
					"underline" : 0,
					"frgb" : [ 0.0, 0.0, 0.0, 1.0 ],
					"textcolor" : [ 0.0, 0.0, 0.0, 1.0 ],
					"fontface" : 0,
					"fontsize" : 11.595187,
					"background" : 0,
					"presentation_rect" : [ 0.0, 0.0, 0.0, 0.0 ],
					"numinlets" : 1,
					"bgcolor" : [ 1.0, 1.0, 1.0, 0.0 ],
					"ignoreclick" : 1,
					"numoutlets" : 0,
					"fontname" : "Arial",
					"patching_rect" : [ 43.0, 31.0, 31.0, 20.0 ],
					"presentation" : 0,
					"hidden" : 0,
					"id" : "obj-6"
				}

			}
, 			{
				"box" : 				{
					"maxclass" : "comment",
					"text" : "vel",
					"underline" : 0,
					"frgb" : [ 0.0, 0.0, 0.0, 1.0 ],
					"textcolor" : [ 0.0, 0.0, 0.0, 1.0 ],
					"fontface" : 0,
					"fontsize" : 11.595187,
					"background" : 0,
					"presentation_rect" : [ 0.0, 0.0, 0.0, 0.0 ],
					"numinlets" : 1,
					"bgcolor" : [ 1.0, 1.0, 1.0, 0.0 ],
					"ignoreclick" : 1,
					"numoutlets" : 0,
					"fontname" : "Arial",
					"patching_rect" : [ 85.0, 31.0, 31.0, 20.0 ],
					"presentation" : 0,
					"hidden" : 0,
					"id" : "obj-5"
				}

			}
, 			{
				"box" : 				{
					"maxclass" : "comment",
					"text" : "dur",
					"underline" : 0,
					"frgb" : [ 0.0, 0.0, 0.0, 1.0 ],
					"textcolor" : [ 0.0, 0.0, 0.0, 1.0 ],
					"fontface" : 0,
					"fontsize" : 11.595187,
					"background" : 0,
					"presentation_rect" : [ 0.0, 0.0, 0.0, 0.0 ],
					"numinlets" : 1,
					"bgcolor" : [ 1.0, 1.0, 1.0, 0.0 ],
					"ignoreclick" : 1,
					"numoutlets" : 0,
					"fontname" : "Arial",
					"patching_rect" : [ 126.0, 31.0, 31.0, 20.0 ],
					"presentation" : 0,
					"hidden" : 0,
					"id" : "obj-4"
				}

			}
, 			{
				"box" : 				{
					"maxclass" : "slider",
					"floatoutput" : 0,
					"orientation" : 0,
					"relative" : 0,
					"knobcolor" : [ 0.2, 0.2, 0.2, 1.0 ],
					"background" : 0,
					"presentation_rect" : [ 0.0, 0.0, 0.0, 0.0 ],
					"size" : 100.0,
					"numinlets" : 1,
					"bgcolor" : [ 1.0, 1.0, 1.0, 1.0 ],
					"ignoreclick" : 0,
					"numoutlets" : 1,
					"bordercolor" : [ 0.5, 0.5, 0.5, 1.0 ],
					"patching_rect" : [ 129.0, 56.0, 18.0, 55.0 ],
					"mult" : 10.0,
					"min" : 20.0,
					"presentation" : 0,
					"hidden" : 0,
					"id" : "obj-3",
					"outlettype" : [ "" ]
				}

			}
, 			{
				"box" : 				{
					"maxclass" : "slider",
					"floatoutput" : 0,
					"orientation" : 0,
					"relative" : 0,
					"knobcolor" : [ 0.2, 0.2, 0.2, 1.0 ],
					"background" : 0,
					"presentation_rect" : [ 0.0, 0.0, 0.0, 0.0 ],
					"size" : 128.0,
					"numinlets" : 1,
					"bgcolor" : [ 1.0, 1.0, 1.0, 1.0 ],
					"ignoreclick" : 0,
					"numoutlets" : 1,
					"bordercolor" : [ 0.5, 0.5, 0.5, 1.0 ],
					"patching_rect" : [ 89.0, 56.0, 18.0, 55.0 ],
					"mult" : 1.0,
					"min" : 0.0,
					"presentation" : 0,
					"hidden" : 0,
					"id" : "obj-2",
					"outlettype" : [ "" ]
				}

			}
, 			{
				"box" : 				{
					"maxclass" : "slider",
					"floatoutput" : 0,
					"orientation" : 0,
					"relative" : 0,
					"knobcolor" : [ 0.2, 0.2, 0.2, 1.0 ],
					"background" : 0,
					"presentation_rect" : [ 0.0, 0.0, 0.0, 0.0 ],
					"size" : 128.0,
					"numinlets" : 1,
					"bgcolor" : [ 1.0, 1.0, 1.0, 1.0 ],
					"ignoreclick" : 0,
					"numoutlets" : 1,
					"bordercolor" : [ 0.5, 0.5, 0.5, 1.0 ],
					"patching_rect" : [ 48.0, 56.0, 18.0, 55.0 ],
					"mult" : 1.0,
					"min" : 0.0,
					"presentation" : 0,
					"hidden" : 0,
					"id" : "obj-1",
					"outlettype" : [ "" ]
				}

			}
 ],
		"lines" : [ 			{
				"patchline" : 				{
					"source" : [ "obj-27", 0 ],
					"destination" : [ "obj-10", 0 ],
					"hidden" : 0,
					"color" : [ 0.0, 0.0, 0.0, 1.0 ],
					"midpoints" : [  ]
				}

			}
, 			{
				"patchline" : 				{
					"source" : [ "obj-27", 0 ],
					"destination" : [ "obj-16", 0 ],
					"hidden" : 0,
					"color" : [ 0.0, 0.0, 0.0, 1.0 ],
					"midpoints" : [  ]
				}

			}
, 			{
				"patchline" : 				{
					"source" : [ "obj-9", 0 ],
					"destination" : [ "obj-27", 1 ],
					"hidden" : 0,
					"color" : [ 0.0, 0.0, 0.0, 1.0 ],
					"midpoints" : [  ]
				}

			}
, 			{
				"patchline" : 				{
					"source" : [ "obj-8", 0 ],
					"destination" : [ "obj-27", 0 ],
					"hidden" : 0,
					"color" : [ 0.0, 0.0, 0.0, 1.0 ],
					"midpoints" : [  ]
				}

			}
, 			{
				"patchline" : 				{
					"source" : [ "obj-1", 0 ],
					"destination" : [ "obj-7", 0 ],
					"hidden" : 0,
					"color" : [ 0.0, 0.0, 0.0, 1.0 ],
					"midpoints" : [  ]
				}

			}
, 			{
				"patchline" : 				{
					"source" : [ "obj-2", 0 ],
					"destination" : [ "obj-7", 1 ],
					"hidden" : 0,
					"color" : [ 0.0, 0.0, 0.0, 1.0 ],
					"midpoints" : [  ]
				}

			}
, 			{
				"patchline" : 				{
					"source" : [ "obj-3", 0 ],
					"destination" : [ "obj-7", 2 ],
					"hidden" : 0,
					"color" : [ 0.0, 0.0, 0.0, 1.0 ],
					"midpoints" : [  ]
				}

			}
, 			{
				"patchline" : 				{
					"source" : [ "obj-7", 0 ],
					"destination" : [ "obj-8", 0 ],
					"hidden" : 0,
					"color" : [ 0.0, 0.0, 0.0, 1.0 ],
					"midpoints" : [  ]
				}

			}
, 			{
				"patchline" : 				{
					"source" : [ "obj-7", 1 ],
					"destination" : [ "obj-9", 0 ],
					"hidden" : 0,
					"color" : [ 0.0, 0.0, 0.0, 1.0 ],
					"midpoints" : [  ]
				}

			}
 ]
	}

}
